<svg version="1.1" id="Layer_1" xmlns="http://www.w3.org/2000/svg" xmlns:xlink="http://www.w3.org/1999/xlink" x="0px" y="0px"
	 width="100%" viewBox="0 0 656 656" enable-background="new 0 0 656 656" xml:space="preserve">
<path fill="#FEFEFE" opacity="1.000000" stroke="none" 
	d="
M657.000000,247.000000 
	C657.000000,383.999969 657.000000,520.499939 657.000000,657.000000 
	C438.333374,657.000000 219.666748,657.000000 1.000095,657.000000 
	C1.000064,438.333405 1.000064,219.666809 1.000032,1.000154 
	C219.666565,1.000103 438.333130,1.000103 656.999878,1.000051 
	C657.000000,82.833336 657.000000,164.666672 657.000000,247.000000 
M646.643433,371.162476 
	C651.184509,336.030762 650.509888,301.021240 643.480164,266.274048 
	C628.677368,193.104706 593.551453,131.366882 536.309326,83.439003 
	C457.705292,17.625137 367.033600,-6.081559 266.288666,12.727983 
	C193.095856,26.393417 131.663727,62.306210 83.749573,119.337852 
	C17.783834,197.856079 -6.015937,288.519531 12.618586,389.258423 
	C26.156996,462.447601 62.066910,523.875854 118.968697,571.963806 
	C192.622437,634.209106 277.956665,659.013733 373.552521,646.002625 
	C445.384399,636.226013 506.861206,604.602234 557.569641,552.924194 
	C607.005676,502.542908 636.371155,441.931091 646.643433,371.162476 
z"/>
<path fill="#1F1F1F" opacity="1.000000" stroke="none" 
	d="
M646.547607,371.595154 
	C636.371155,441.931091 607.005676,502.542908 557.569641,552.924194 
	C506.861206,604.602234 445.384399,636.226013 373.552521,646.002625 
	C277.956665,659.013733 192.622437,634.209106 118.968697,571.963806 
	C62.066910,523.875854 26.156996,462.447601 12.618586,389.258423 
	C-6.015937,288.519531 17.783834,197.856079 83.749573,119.337852 
	C131.663727,62.306210 193.095856,26.393417 266.288666,12.727983 
	C367.033600,-6.081559 457.705292,17.625137 536.309326,83.439003 
	C593.551453,131.366882 628.677368,193.104706 643.480164,266.274048 
	C650.509888,301.021240 651.184509,336.030762 646.547607,371.595154 
M356.888550,379.767456 
	C357.281586,379.771149 357.674591,379.774872 358.525208,380.341705 
	C363.866028,381.826324 363.883636,378.314270 363.881714,374.691132 
	C363.855560,325.623871 363.868774,276.556580 363.757324,227.489548 
	C363.751190,224.793442 364.195618,222.971649 367.550934,222.480713 
	C368.370697,222.330322 369.190491,222.179947 370.925812,222.241302 
	C387.946350,222.174240 404.966919,222.107162 422.604401,222.335587 
	C424.407379,222.236420 426.210358,222.137268 428.789490,222.261963 
	C429.855652,222.187454 430.921783,222.112961 432.692200,222.342422 
	C434.807220,222.402023 436.922241,222.461624 439.810059,222.799149 
	C457.366760,225.682983 468.525024,240.175613 467.056396,258.187469 
	C465.739746,274.335358 452.309357,286.072845 434.922699,286.138184 
	C417.262848,286.204529 399.602539,286.153961 381.942444,286.173645 
	C380.392212,286.175354 378.842072,286.318207 376.724426,286.423798 
	C383.684662,297.417175 390.330688,307.747528 396.812317,318.180023 
	C429.050629,370.069153 461.259949,421.976288 493.416565,473.916016 
	C495.153564,476.721649 497.032501,478.118103 500.568756,478.071320 
	C516.393555,477.861877 532.222534,477.979980 548.049988,477.947205 
	C549.420105,477.944366 550.789673,477.703064 552.805847,477.510986 
	C522.635010,427.867920 492.875763,378.902100 463.007538,329.756927 
	C464.384460,329.086975 465.250214,328.598633 466.164368,328.230560 
	C507.576752,311.556580 526.658142,259.146393 504.800476,217.825851 
	C490.052856,189.946457 466.685730,174.870544 434.667236,174.670914 
	C402.180420,174.468384 369.690643,174.685181 337.205292,174.384399 
	C332.610352,174.341873 330.225372,175.227478 329.416351,180.109573 
	C327.508850,182.050171 326.776489,183.811935 330.429993,185.565521 
	C330.333710,187.375427 330.237396,189.185318 329.325867,191.153351 
	C328.883575,192.625397 328.081635,194.093414 328.065125,195.570236 
	C328.011292,200.374634 328.360443,205.182510 328.349121,209.988571 
	C328.259430,248.064407 328.101990,286.140137 328.087891,324.215912 
	C328.087433,325.478058 329.392487,326.740662 330.363708,328.772980 
	C330.513214,332.212524 330.358185,335.705261 330.945190,339.068420 
	C331.223999,340.665741 332.918091,342.015991 333.971039,343.478180 
	C335.443512,342.297485 336.915955,341.116791 339.119537,339.930206 
	C339.548737,339.586212 339.977905,339.242188 340.407104,338.898193 
	C339.753754,338.610504 339.100433,338.322815 338.212708,337.286194 
	C338.289673,336.513824 338.366669,335.741455 339.326294,334.889465 
	C339.850403,334.338013 340.815277,333.798126 340.830017,333.233337 
	C340.968353,327.950867 341.050659,322.660187 340.854218,317.382843 
	C340.823792,316.566071 339.299835,315.804962 338.233795,314.213806 
	C338.306702,310.468018 338.379608,306.722260 339.317596,302.896149 
	C342.076782,299.269470 341.756134,295.970703 338.209747,293.080444 
	C338.162384,270.926270 338.080963,248.772003 338.149475,226.618195 
	C338.153748,225.237244 339.334076,223.859955 340.862244,222.573410 
	C343.252930,222.527466 345.643585,222.481522 348.891663,222.690521 
	C356.296173,223.048203 356.308228,223.048492 356.125793,230.587326 
	C356.074005,232.726959 355.929901,234.864365 355.097198,237.017654 
	C349.492737,239.349686 348.649719,244.650162 348.147705,249.541397 
	C347.531830,255.542114 348.000122,261.654114 348.000061,267.718018 
	C347.999908,281.183929 347.796753,294.653992 348.069641,308.114380 
	C348.259735,317.490204 345.589600,327.187103 350.791321,336.140076 
	C351.379364,337.152252 351.093506,338.765320 350.973541,340.077881 
	C350.640442,343.722931 352.135803,345.428131 356.060272,345.914185 
	C356.006104,352.943481 355.951935,359.972809 355.177338,367.020630 
	C354.510254,367.550598 353.843140,368.080597 353.176056,368.610565 
	C354.082092,369.072968 354.988098,369.535370 356.102386,370.853088 
	C356.066589,372.902100 356.030823,374.951141 355.240540,377.018372 
	C354.560364,377.526276 353.880219,378.034210 353.200043,378.542114 
	C354.235748,378.983307 355.271484,379.424530 356.888550,379.767456 
M244.725037,108.276489 
	C240.142792,110.165436 235.560547,112.054382 230.254700,114.003365 
	C219.274933,120.201691 208.295166,126.400024 197.144043,132.637680 
	C197.144043,132.637680 197.014938,132.757004 196.345337,132.935928 
	C195.293762,133.812454 194.242203,134.688995 192.657806,135.719238 
	C191.737045,136.407318 190.816269,137.095413 189.323044,137.928650 
	C188.887039,138.303619 188.451035,138.678604 187.377335,139.259750 
	C178.777954,146.615524 169.505630,153.331467 161.749451,161.488953 
	C152.045837,171.694611 143.588257,183.084991 134.061020,194.289673 
	C122.988289,209.990967 113.920029,226.727203 107.528992,245.635254 
	C104.637573,255.765350 101.746155,265.895447 98.784966,276.362549 
	C98.784966,276.362549 98.853035,276.699890 98.352524,277.320007 
	C97.441887,282.841003 96.531250,288.362030 95.207680,294.544495 
	C94.473717,311.109406 93.692879,327.672516 93.048271,344.240906 
	C92.929817,347.285309 92.469231,351.700134 96.673309,351.655609 
	C101.059944,351.609161 100.137665,347.120789 100.046516,344.124207 
	C99.306252,319.785522 101.323891,295.721832 107.080688,271.236023 
	C109.816093,262.311340 112.551498,253.386642 115.803391,243.959045 
	C116.438606,242.793472 117.078072,241.630173 117.708389,240.461945 
	C125.507866,226.006256 133.306015,211.549866 141.648041,196.704773 
	C143.573456,194.206985 145.494019,191.705444 147.425064,189.212021 
	C159.288223,173.894089 173.245834,160.666824 188.804016,148.113235 
	C203.246994,139.231415 217.689987,130.349594 232.842178,121.226967 
	C237.246658,119.338051 241.651138,117.449127 246.825790,115.392609 
	C252.883835,113.261002 258.941864,111.129395 265.801208,108.950058 
	C276.862061,106.996017 287.922943,105.041977 299.690552,103.544327 
	C300.653503,103.694244 301.655975,104.098396 302.573456,103.955727 
	C315.099609,102.007942 321.680359,108.603600 325.381714,119.566376 
	C326.083527,121.645065 327.273956,123.558777 328.326660,125.729492 
	C333.133453,123.606316 334.211639,119.762451 334.919861,115.851303 
	C335.954437,110.137550 339.460327,106.573975 344.772552,105.284882 
	C350.045715,104.005257 355.539703,103.635590 361.573517,103.408997 
	C365.702545,103.988365 369.831543,104.567734 374.562347,105.611877 
	C376.018372,105.907745 377.472015,106.216179 378.930817,106.497574 
	C398.193268,110.213173 416.102051,117.791626 434.283081,126.188690 
	C440.731903,129.974960 447.157043,133.802536 453.644104,137.522110 
	C455.568756,138.625656 457.667542,139.425400 459.926666,140.313431 
	C459.926666,140.313431 459.681213,140.313782 459.575592,140.972839 
	C460.933777,142.069504 462.291992,143.166168 464.053345,144.813583 
	C472.432220,151.859756 480.811096,158.905930 489.428497,166.556595 
	C500.026489,179.713943 511.517303,192.267563 520.947876,206.214294 
	C528.895203,217.967407 534.448914,231.338943 541.075439,244.647339 
	C541.651794,245.778900 542.228088,246.910477 542.907715,248.772446 
	C543.887268,251.203964 544.866760,253.635483 545.881348,256.841736 
	C552.245422,275.894745 556.261108,295.347565 556.186157,315.544556 
	C556.167664,320.526611 556.509216,325.529816 557.064026,330.480835 
	C557.209351,331.777313 558.767273,333.891357 559.690002,333.898560 
	C561.111511,333.909668 563.129639,332.751312 563.827148,331.495941 
	C564.731567,329.868103 564.886230,327.651398 564.842773,325.699799 
	C564.675903,318.213776 564.558350,310.711426 563.951233,303.253540 
	C562.540527,285.924316 558.694946,269.123840 552.150330,252.193436 
	C545.889771,233.719498 537.361328,216.283630 526.562500,200.116760 
	C519.162476,189.038300 510.593292,178.732025 502.370697,168.218216 
	C500.469757,165.787521 497.850159,163.918854 495.238525,161.166885 
	C491.948547,158.200333 488.658569,155.233795 485.172241,151.822037 
	C484.661133,151.434387 484.150024,151.046738 483.226746,150.107468 
	C476.353088,145.000427 469.479401,139.893387 462.261536,134.161835 
	C452.890045,128.664978 443.518555,123.168137 433.644958,117.209045 
	C426.608734,114.351776 419.574615,111.489296 412.535828,108.638382 
	C400.102020,103.602364 387.469604,99.285095 373.134827,97.870186 
	C369.021637,97.387604 364.908478,96.905014 360.003876,96.161407 
	C357.048431,95.775703 354.097504,95.114204 351.136505,95.065331 
	C345.978241,94.980186 341.416473,94.373077 338.142548,89.479324 
	C336.832123,87.520538 333.898926,86.647362 331.704407,85.280037 
	C332.005066,85.196587 332.305756,85.113136 332.606445,85.029686 
	C331.373749,82.553841 330.141083,80.077995 328.908386,77.602158 
	C327.047913,78.990631 324.191162,80.000130 323.494537,81.831345 
	C319.945923,91.159828 313.196533,95.053596 303.598785,95.014069 
	C302.015228,95.007545 300.429779,95.444939 297.976196,95.748154 
	C285.969147,98.142014 273.962097,100.535873 261.168091,102.835411 
	C255.933716,104.619110 250.699341,106.402817 244.725037,108.276489 
M280.475494,558.780579 
	C286.001984,559.506836 291.528442,560.233093 297.864594,561.127014 
	C302.484131,561.663086 307.134491,562.014465 311.715729,562.779846 
	C318.096802,563.845825 321.758453,567.822266 323.338898,574.036377 
	C323.760712,575.694946 325.367981,577.356445 326.878693,578.299683 
	C327.588593,578.742981 330.094971,577.838806 330.524933,576.940796 
	C332.589935,572.627991 335.107330,569.443726 339.432892,566.611938 
	C342.197540,564.802002 344.538635,563.233154 347.759979,562.730408 
	C352.028046,562.064331 356.274048,561.256836 361.421753,560.805542 
	C378.589417,559.567078 395.051514,555.363892 411.745483,548.939087 
	C438.062683,539.592590 461.646210,525.515320 482.969635,507.588562 
	C487.419128,503.847809 491.736511,499.897980 495.678650,495.640594 
	C496.722107,494.513641 496.142548,491.883850 496.308228,489.944092 
	C494.526459,490.084259 492.525696,489.764008 491.018341,490.481018 
	C489.129028,491.379761 487.581268,493.060913 485.995392,494.522919 
	C472.735992,506.746887 458.296661,517.403687 442.506195,526.067505 
	C432.190430,531.727478 421.421661,536.561890 410.086884,541.851318 
	C393.682007,545.934143 377.277100,550.016968 360.026733,554.020752 
	C356.767609,553.694641 353.410400,552.705994 350.268524,553.171387 
	C342.139069,554.375610 337.508148,550.557312 334.489410,543.639648 
	C333.495056,541.361023 332.282776,539.178284 331.255310,536.913025 
	C330.341248,534.897827 329.545013,532.829224 328.696777,530.784180 
	C328.066772,530.650513 327.436768,530.516907 326.806763,530.383240 
	C325.226837,533.600830 323.197662,536.680298 322.157349,540.063782 
	C319.743195,547.915466 316.591797,552.139709 308.916565,552.652161 
	C305.618988,552.872375 302.353546,553.574707 298.183136,554.011414 
	C292.110413,553.294617 286.037720,552.577759 279.321106,551.506287 
	C270.904510,549.220520 262.487915,546.934692 253.566162,544.186768 
	C251.420364,543.297180 249.302917,542.330383 247.124435,541.529663 
	C221.270828,532.026978 198.090332,518.056641 177.384323,499.924347 
	C173.271454,496.322723 169.178070,492.681915 164.838623,489.369781 
	C163.939468,488.683472 161.423584,488.819794 160.671524,489.582062 
	C159.834152,490.430847 159.527634,492.775543 160.117706,493.849365 
	C161.202988,495.824341 162.932114,497.568542 164.710876,499.018982 
	C174.465363,506.972931 183.980453,515.279236 194.209305,522.579590 
	C211.599747,534.991333 230.585907,544.486938 251.650650,551.364075 
	C261.049286,553.689697 270.447937,556.015381 280.475494,558.780579 
M545.499268,171.512131 
	C545.499268,171.512131 545.483765,171.397293 545.387207,170.773697 
	C537.236206,161.190414 529.085144,151.607132 520.665771,141.417542 
	C515.189026,136.457779 509.896759,131.273132 504.190857,126.592720 
	C496.285278,120.107887 488.068726,114.002129 479.507904,107.179733 
	C474.057617,103.656738 468.776245,99.833687 463.131226,96.656738 
	C400.336029,61.316395 333.824219,52.253403 263.757141,68.745766 
	C228.159058,77.124832 196.131561,93.012375 166.282654,115.043205 
	C143.397980,132.314423 123.445549,152.517166 107.686180,176.448776 
	C99.607063,188.717438 93.260391,202.126968 85.515739,215.371292 
	C72.975716,241.297913 65.990005,268.760559 63.078594,297.309601 
	C62.389420,304.067505 64.415215,311.828339 54.492973,314.208221 
	C57.700134,319.301300 60.490784,323.732971 63.006279,328.815765 
	C62.125999,329.526489 61.292679,330.307037 60.357502,330.936127 
	C55.812691,333.993256 55.616146,335.201202 59.039371,339.631775 
	C59.751797,340.553864 60.412991,341.522247 61.189278,342.387146 
	C65.104393,346.749237 70.035072,346.352692 73.219894,341.360809 
	C74.350487,339.588715 75.230682,337.656860 76.684776,334.938873 
	C74.381371,332.980011 72.098953,331.039001 69.667404,328.331940 
	C71.792435,325.693024 73.770271,322.916077 76.081375,320.451660 
	C78.712959,317.645569 78.995125,314.767609 75.550575,313.105164 
	C69.851341,310.354584 69.647194,305.869812 70.197937,300.645233 
	C72.681839,277.082001 77.936813,254.192795 86.473839,232.064774 
	C88.179489,227.643753 89.525421,223.083954 91.661003,218.183731 
	C93.153328,215.606857 94.732147,213.075760 96.123924,210.445663 
	C105.084831,193.511856 114.869415,176.998840 127.838730,162.887283 
	C140.275192,149.355499 153.905533,136.920990 167.660751,123.836098 
	C173.554672,119.644768 179.350266,115.306328 185.360748,111.289398 
	C204.148666,98.733063 224.271835,88.870316 245.795761,81.940262 
	C302.519440,63.676933 359.117249,64.184822 415.527283,83.318527 
	C436.604309,90.467651 456.106750,100.857079 475.136688,113.310219 
	C488.958374,124.893997 502.780090,136.477768 516.827637,148.599274 
	C524.760193,157.977112 532.692810,167.354950 540.670654,177.395508 
	C542.647461,180.442444 544.738525,183.422119 546.580261,186.548676 
	C552.668884,196.884781 558.667480,207.273926 564.648193,218.351685 
	C566.630310,223.102203 568.684875,227.823990 570.582275,232.608139 
	C579.529297,255.168396 585.220581,278.491638 587.011169,302.737915 
	C587.330444,307.061157 586.525818,310.571594 582.290100,312.743256 
	C579.470703,314.188751 579.202698,316.320709 581.208740,318.861481 
	C583.575623,321.859253 585.788757,324.978363 587.701721,328.613647 
	C585.215759,330.722137 582.729858,332.830597 579.084290,335.922638 
	C582.796814,339.164124 585.928162,343.970825 590.010864,344.998627 
	C596.897400,346.732239 596.644592,338.904633 599.553406,335.151917 
	C597.351624,332.376190 595.221008,329.690277 593.780884,327.024811 
	C594.477722,326.584991 595.273865,326.248566 595.856079,325.689392 
	C601.750732,320.028198 605.407532,318.604523 596.420044,310.573792 
	C595.093811,309.388702 594.787842,306.773010 594.510864,304.750610 
	C593.002441,293.734467 592.140930,282.607056 590.138428,271.686279 
	C586.514099,251.920898 580.025146,233.016388 571.109070,214.205246 
	C563.149536,200.682343 555.190002,187.159454 547.073059,173.089767 
	C546.575195,172.591766 546.077271,172.093781 545.499268,171.512131 
M248.609436,576.438049 
	C247.073135,575.957886 245.536850,575.477661 243.339767,574.684631 
	C236.410110,571.895935 229.432037,569.221008 222.559387,566.298279 
	C195.833069,554.932190 172.122849,538.910400 150.853928,519.247375 
	C144.378220,513.260681 138.434937,506.700348 132.035324,500.626617 
	C130.995865,499.640045 128.845963,499.823456 127.209335,499.466064 
	C127.038689,501.123718 126.298927,502.999146 126.830467,504.388062 
	C127.632721,506.484344 129.063980,508.502838 130.679626,510.096436 
	C137.424774,516.749634 144.200104,523.384644 151.217224,529.747437 
	C170.701920,547.415405 192.725220,561.302307 216.604309,572.136353 
	C226.081879,576.436340 236.144241,579.447388 246.394684,583.557617 
	C247.930695,584.026184 249.466690,584.494751 251.773849,585.097107 
	C259.515472,587.044006 267.257080,588.990967 275.791779,591.098938 
	C276.579285,591.357361 277.348969,591.717407 278.156921,591.859436 
	C300.095581,595.713379 322.222809,596.687683 344.435516,595.899841 
	C348.972839,595.738892 353.478760,594.691162 358.895477,594.044189 
	C377.438812,592.976624 395.324677,588.578857 412.868073,582.845093 
	C459.324005,567.661865 498.367340,541.059998 531.264587,505.163727 
	C533.007202,503.262329 535.480103,501.132446 532.787659,498.347870 
	C529.918701,495.380768 527.812073,497.696289 525.687683,499.759247 
	C516.751404,508.437225 508.111542,517.461426 498.731903,525.634460 
	C468.506775,551.971313 433.811035,570.067200 394.955078,579.875305 
	C381.788300,583.198914 368.316559,585.314758 354.097412,587.980835 
	C349.333313,588.307495 344.548309,589.093811 339.808807,588.878601 
	C322.201630,588.079346 304.609375,586.950500 286.280731,585.627563 
	C282.537537,585.047180 278.794312,584.466797 274.599121,583.401978 
	C273.733215,583.261414 272.867310,583.120850 271.293976,582.664124 
	C263.885284,580.758728 256.476593,578.853271 248.609436,576.438049 
M188.897202,239.411819 
	C144.976761,318.783478 101.056328,398.155121 56.873783,478.000427 
	C74.753525,478.000427 91.910507,477.910339 109.065010,478.076569 
	C112.486740,478.109741 113.653893,476.070190 114.962311,473.707794 
	C147.604279,414.771973 180.250244,355.838379 212.905914,296.910156 
	C217.956085,287.796967 223.056885,278.711853 228.231125,269.440186 
	C228.906586,270.148590 229.337524,270.451569 229.570023,270.865875 
	C239.994537,289.442352 250.398666,308.030334 260.811371,326.613434 
	C288.228088,375.543091 315.667999,424.459778 343.020111,473.425476 
	C344.836151,476.676636 346.919067,478.139984 350.849396,478.069183 
	C365.007294,477.814209 379.172668,477.971985 393.335205,477.973755 
	C395.236755,477.973969 397.138306,477.973755 399.924652,477.973755 
	C342.489227,374.446808 285.593201,271.892059 228.173569,168.393555 
	C214.807526,192.540390 202.016968,215.647568 188.897202,239.411819 
M238.500000,355.622345 
	C248.142715,355.604614 257.790344,355.734650 267.423004,355.414246 
	C268.914886,355.364624 270.338135,353.252014 271.793121,352.093414 
	C270.417725,350.735474 269.061157,348.217255 267.664124,348.194611 
	C248.387955,347.882294 229.105972,347.843323 209.826035,347.910522 
	C205.196625,347.926636 202.530746,351.022614 200.208923,355.619446 
	C213.057327,355.619446 225.278656,355.619446 238.500000,355.622345 
M228.532455,327.160675 
	C234.029099,327.098602 239.541153,327.240570 245.011200,326.826965 
	C246.332642,326.727020 248.668732,324.571228 248.511871,323.746033 
	C248.221313,322.217438 246.480713,319.840210 245.265213,319.791687 
	C236.457535,319.440430 227.625732,319.446564 218.814224,319.731445 
	C217.627899,319.769806 215.431564,322.204132 215.614090,323.166504 
	C215.897308,324.659912 217.639694,326.650360 219.092941,326.980652 
	C221.785370,327.592621 224.715988,327.156647 228.532455,327.160675 
M65.752937,368.741302 
	C67.166756,367.543457 69.774986,366.335815 69.765297,365.149597 
	C69.738678,361.889374 68.613815,358.638092 67.923531,355.383270 
	C66.298637,355.959747 63.243202,356.633148 63.274666,357.097351 
	C63.531345,360.884125 64.364586,364.631805 65.752937,368.741302 
M590.535095,368.012146 
	C593.855347,366.407349 596.556458,358.658417 594.226440,356.386230 
	C593.224915,355.409607 590.295105,355.086426 589.141357,355.841492 
	C585.861938,357.987793 586.437744,365.283386 590.535095,368.012146 
z"/>
<path fill="#FCFCFB" opacity="1.000000" stroke="none" 
	d="
M189.061798,239.083282 
	C202.016968,215.647568 214.807526,192.540390 228.173569,168.393555 
	C285.593201,271.892059 342.489227,374.446808 399.924652,477.973755 
	C397.138306,477.973755 395.236755,477.973969 393.335205,477.973755 
	C379.172668,477.971985 365.007294,477.814209 350.849396,478.069183 
	C346.919067,478.139984 344.836151,476.676636 343.020111,473.425476 
	C315.667999,424.459778 288.228088,375.543091 260.811371,326.613434 
	C250.398666,308.030334 239.994537,289.442352 229.570023,270.865875 
	C229.337524,270.451569 228.906586,270.148590 228.231125,269.440186 
	C223.056885,278.711853 217.956085,287.796967 212.905914,296.910156 
	C180.250244,355.838379 147.604279,414.771973 114.962311,473.707794 
	C113.653893,476.070190 112.486740,478.109741 109.065010,478.076569 
	C91.910507,477.910339 74.753525,478.000427 56.873783,478.000427 
	C101.056328,398.155121 144.976761,318.783478 189.061798,239.083282 
z"/>
<path fill="#FCFCFB" opacity="1.000000" stroke="none" 
	d="
M330.141113,190.995224 
	C330.237396,189.185318 330.333710,187.375427 330.419952,184.857727 
	C330.329956,182.764847 330.250031,181.379791 330.170105,179.994720 
	C330.225372,175.227478 332.610352,174.341873 337.205292,174.384399 
	C369.690643,174.685181 402.180420,174.468384 434.667236,174.670914 
	C466.685730,174.870544 490.052856,189.946457 504.800476,217.825851 
	C526.658142,259.146393 507.576752,311.556580 466.164368,328.230560 
	C465.250214,328.598633 464.384460,329.086975 463.007538,329.756927 
	C492.875763,378.902100 522.635010,427.867920 552.805847,477.510986 
	C550.789673,477.703064 549.420105,477.944366 548.049988,477.947205 
	C532.222534,477.979980 516.393555,477.861877 500.568756,478.071320 
	C497.032501,478.118103 495.153564,476.721649 493.416565,473.916016 
	C461.259949,421.976288 429.050629,370.069153 396.812317,318.180023 
	C390.330688,307.747528 383.684662,297.417175 376.724426,286.423798 
	C378.842072,286.318207 380.392212,286.175354 381.942444,286.173645 
	C399.602539,286.153961 417.262848,286.204529 434.922699,286.138184 
	C452.309357,286.072845 465.739746,274.335358 467.056396,258.187469 
	C468.525024,240.175613 457.366760,225.682983 439.300659,222.325058 
	C436.523499,221.913452 434.255707,221.975952 431.987946,222.038452 
	C430.921783,222.112961 429.855652,222.187454 428.161133,221.865112 
	C425.684357,221.658875 423.835907,221.849487 421.987457,222.040100 
	C404.966919,222.107162 387.946350,222.174240 370.313690,221.891724 
	C368.786285,221.778519 367.871002,222.014893 366.955688,222.251251 
	C364.195618,222.971649 363.751190,224.793442 363.757324,227.489548 
	C363.868774,276.556580 363.855560,325.623871 363.881714,374.691132 
	C363.883636,378.314270 363.866028,381.826324 358.269043,379.799377 
	C357.532593,378.826599 357.052277,378.396210 356.433472,377.720947 
	C356.195038,377.317444 356.095062,377.158813 355.995056,377.000153 
	C356.030823,374.951141 356.066589,372.902100 356.098724,370.057678 
	C356.029297,368.508911 355.963531,367.755493 355.897766,367.002106 
	C355.951935,359.972809 356.006104,352.943481 356.053436,344.996277 
	C356.047028,328.802643 356.075287,313.526917 356.041107,298.251282 
	C355.995483,277.835052 355.901398,257.418945 355.828125,237.002792 
	C355.929901,234.864365 356.074005,232.726959 356.125793,230.587326 
	C356.308228,223.048492 356.296173,223.048203 348.323273,222.237457 
	C345.159027,222.016586 342.563141,222.248779 339.967285,222.480972 
	C339.334076,223.859955 338.153748,225.237244 338.149475,226.618195 
	C338.080963,248.772003 338.162384,270.926270 338.209717,293.837128 
	C338.290619,297.388031 338.371552,300.182251 338.452484,302.976471 
	C338.379608,306.722260 338.306702,310.468018 338.233887,315.005188 
	C338.303894,322.187408 338.373779,328.578247 338.443665,334.969086 
	C338.366669,335.741455 338.289673,336.513824 338.220245,337.969025 
	C338.281342,339.079926 338.334900,339.508026 338.388428,339.936096 
	C336.915955,341.116791 335.443512,342.297485 333.971039,343.478180 
	C332.918091,342.015991 331.223999,340.665741 330.945190,339.068420 
	C330.358185,335.705261 330.513214,332.212524 330.333679,327.929657 
	C330.347839,285.865967 330.400848,244.645615 330.422791,203.425247 
	C330.424988,199.281952 330.239471,195.138565 330.141113,190.995224 
z"/>
<path fill="#E3E3E3" opacity="1.000000" stroke="none" 
	d="
M166.942245,114.853813 
	C196.131561,93.012375 228.159058,77.124832 263.757141,68.745766 
	C333.824219,52.253403 400.336029,61.316395 463.131226,96.656738 
	C468.776245,99.833687 474.057617,103.656738 479.294800,107.508026 
	C477.662964,109.486938 476.244232,111.137573 474.825500,112.788193 
	C456.106750,100.857079 436.604309,90.467651 415.527283,83.318527 
	C359.117249,64.184822 302.519440,63.676933 245.795761,81.940262 
	C224.271835,88.870316 204.148666,98.733063 185.360748,111.289398 
	C179.350266,115.306328 173.554672,119.644768 166.992310,123.862198 
	C166.063873,122.980415 165.421097,121.367271 165.600876,121.269707 
	C168.656921,119.611084 166.942490,117.060776 166.942245,114.853813 
z"/>
<path fill="#5F5C61" opacity="1.000000" stroke="none" 
	d="
M354.984192,587.982544 
	C368.316559,585.314758 381.788300,583.198914 394.955078,579.875305 
	C433.811035,570.067200 468.506775,551.971313 498.731903,525.634460 
	C508.111542,517.461426 516.751404,508.437225 525.687683,499.759247 
	C527.812073,497.696289 529.918701,495.380768 532.787659,498.347870 
	C535.480103,501.132446 533.007202,503.262329 531.264587,505.163727 
	C498.367340,541.059998 459.324005,567.661865 412.868073,582.845093 
	C395.324677,588.578857 377.438812,592.976624 358.306641,593.736450 
	C356.806580,591.613342 355.895386,589.797974 354.984192,587.982544 
z"/>
<path fill="#464647" opacity="1.000000" stroke="none" 
	d="
M245.940353,583.045288 
	C236.144241,579.447388 226.081879,576.436340 216.604309,572.136353 
	C192.725220,561.302307 170.701920,547.415405 151.217224,529.747437 
	C144.200104,523.384644 137.424774,516.749634 130.679626,510.096436 
	C129.063980,508.502838 127.632721,506.484344 126.830467,504.388062 
	C126.298927,502.999146 127.038689,501.123718 127.209328,499.466064 
	C128.845963,499.823456 130.995865,499.640045 132.035324,500.626617 
	C138.434937,506.700348 144.378220,513.260681 150.853928,519.247375 
	C172.122849,538.910400 195.833069,554.932190 222.559387,566.298279 
	C229.432037,569.221008 236.410110,571.895935 243.678680,575.213928 
	C244.869446,579.631287 247.124268,577.637268 249.067932,576.947815 
	C256.476593,578.853271 263.885284,580.758728 271.692383,583.153687 
	C273.077576,583.724365 274.064362,583.805359 275.051117,583.886353 
	C278.794312,584.466797 282.537537,585.047180 286.591766,586.183105 
	C284.839050,587.492371 282.781342,588.263306 280.709778,588.994995 
	C278.813843,589.664612 276.902985,590.291931 274.998688,590.937866 
	C267.257080,588.990967 259.515472,587.044006 251.347946,584.685669 
	C249.912949,581.223572 247.966858,581.971436 245.940353,583.045288 
z"/>
<path fill="#F7F7F7" opacity="1.000000" stroke="none" 
	d="
M298.845215,95.677185 
	C300.429779,95.444939 302.015228,95.007545 303.598785,95.014069 
	C313.196533,95.053596 319.945923,91.159828 323.494537,81.831345 
	C324.191162,80.000130 327.047913,78.990631 328.908386,77.602158 
	C330.141083,80.077995 331.373749,82.553841 332.606445,85.029686 
	C332.305756,85.113136 332.005066,85.196587 331.704407,85.280037 
	C333.898926,86.647362 336.832123,87.520538 338.142548,89.479324 
	C341.416473,94.373077 345.978241,94.980186 351.136505,95.065331 
	C354.097504,95.114204 357.048431,95.775703 360.362915,96.692574 
	C360.793549,99.104774 360.865204,100.985809 360.936829,102.866844 
	C355.539703,103.635590 350.045715,104.005257 344.772552,105.284882 
	C339.460327,106.573975 335.954437,110.137550 334.919861,115.851303 
	C334.211639,119.762451 333.133453,123.606316 328.326660,125.729492 
	C327.273956,123.558777 326.083527,121.645065 325.381714,119.566376 
	C321.680359,108.603600 315.099609,102.007942 302.573456,103.955727 
	C301.655975,104.098396 300.653503,103.694244 299.338013,102.854019 
	C298.938690,100.001541 298.891937,97.839363 298.845215,95.677185 
z"/>
<path fill="#F7F7F7" opacity="1.000000" stroke="none" 
	d="
M360.529480,560.510132 
	C356.274048,561.256836 352.028046,562.064331 347.759979,562.730408 
	C344.538635,563.233154 342.197540,564.802002 339.432892,566.611938 
	C335.107330,569.443726 332.589935,572.627991 330.524933,576.940796 
	C330.094971,577.838806 327.588593,578.742981 326.878693,578.299683 
	C325.367981,577.356445 323.760712,575.694946 323.338898,574.036377 
	C321.758453,567.822266 318.096802,563.845825 311.715729,562.779846 
	C307.134491,562.014465 302.484131,561.663086 297.411560,560.669067 
	C297.663513,558.160034 298.368500,556.108948 299.073486,554.057922 
	C302.353546,553.574707 305.618988,552.872375 308.916565,552.652161 
	C316.591797,552.139709 319.743195,547.915466 322.157349,540.063782 
	C323.197662,536.680298 325.226837,533.600830 326.806763,530.383240 
	C327.436768,530.516907 328.066772,530.650513 328.696777,530.784180 
	C329.545013,532.829224 330.341248,534.897827 331.255310,536.913025 
	C332.282776,539.178284 333.495056,541.361023 334.489410,543.639648 
	C337.508148,550.557312 342.139069,554.375610 350.268524,553.171387 
	C353.410400,552.705994 356.767609,553.694641 360.508728,554.390991 
	C360.836975,556.677490 360.683228,558.593750 360.529480,560.510132 
z"/>
<path fill="#959497" opacity="1.000000" stroke="none" 
	d="
M63.281433,328.164612 
	C60.490784,323.732971 57.700134,319.301300 54.492973,314.208221 
	C64.415215,311.828339 62.389420,304.067505 63.078594,297.309601 
	C65.990005,268.760559 72.975716,241.297913 86.149155,215.316254 
	C88.200790,216.370209 89.619003,217.479187 91.037224,218.588150 
	C89.525421,223.083954 88.179489,227.643753 86.473839,232.064774 
	C77.936813,254.192795 72.681839,277.082001 70.197937,300.645233 
	C69.647194,305.869812 69.851341,310.354584 75.550575,313.105164 
	C78.995125,314.767609 78.712959,317.645569 76.081375,320.451660 
	C73.770271,322.916077 71.792435,325.693024 69.383667,328.621002 
	C67.160431,328.661560 65.220932,328.413086 63.281433,328.164612 
z"/>
<path fill="#A09FA1" opacity="1.000000" stroke="none" 
	d="
M571.245911,214.919708 
	C580.025146,233.016388 586.514099,251.920898 590.138428,271.686279 
	C592.140930,282.607056 593.002441,293.734467 594.510864,304.750610 
	C594.787842,306.773010 595.093811,309.388702 596.420044,310.573792 
	C605.407532,318.604523 601.750732,320.028198 595.856079,325.689392 
	C595.273865,326.248566 594.477722,326.584991 593.084717,327.124939 
	C590.948608,327.498352 589.508545,327.771606 588.068542,328.044861 
	C585.788757,324.978363 583.575623,321.859253 581.208740,318.861481 
	C579.202698,316.320709 579.470703,314.188751 582.290100,312.743256 
	C586.525818,310.571594 587.330444,307.061157 587.011169,302.737915 
	C585.220581,278.491638 579.529297,255.168396 570.582275,232.608139 
	C568.684875,227.823990 566.630310,223.102203 564.879761,217.626099 
	C567.156128,216.240234 569.201050,215.579971 571.245911,214.919708 
z"/>
<path fill="#DFDEDE" opacity="1.000000" stroke="none" 
	d="
M91.349113,218.385941 
	C89.619003,217.479187 88.200790,216.370209 86.456665,215.141052 
	C93.260391,202.126968 99.607063,188.717438 107.686180,176.448776 
	C123.445549,152.517166 143.397980,132.314423 166.612457,114.948509 
	C166.942490,117.060776 168.656921,119.611084 165.600876,121.269707 
	C165.421097,121.367271 166.063873,122.980415 166.667542,123.946281 
	C153.905533,136.920990 140.275192,149.355499 127.838730,162.887283 
	C114.869415,176.998840 105.084831,193.511856 96.123924,210.445663 
	C94.732147,213.075760 93.153328,215.606857 91.349113,218.385941 
z"/>
<path fill="#4C4C4F" opacity="1.000000" stroke="none" 
	d="
M250.984344,551.030640 
	C230.585907,544.486938 211.599747,534.991333 194.209305,522.579590 
	C183.980453,515.279236 174.465363,506.972931 164.710876,499.018982 
	C162.932114,497.568542 161.202988,495.824341 160.117706,493.849365 
	C159.527634,492.775543 159.834152,490.430847 160.671524,489.582062 
	C161.423584,488.819794 163.939468,488.683472 164.838623,489.369781 
	C169.178070,492.681915 173.271454,496.322723 177.384323,499.924347 
	C198.090332,518.056641 221.270828,532.026978 247.124435,541.529663 
	C249.302917,542.330383 251.420364,543.297180 253.776596,544.801331 
	C252.986130,547.287476 251.985229,549.159058 250.984344,551.030640 
z"/>
<path fill="#7F7C7F" opacity="1.000000" stroke="none" 
	d="
M495.561249,161.791565 
	C497.850159,163.918854 500.469757,165.787521 502.370697,168.218216 
	C510.593292,178.732025 519.162476,189.038300 526.562500,200.116760 
	C537.361328,216.283630 545.889771,233.719498 551.809937,252.614746 
	C549.595154,254.046371 547.720703,255.056686 545.846313,256.066986 
	C544.866760,253.635483 543.887268,251.203964 543.219238,248.366119 
	C544.230286,247.222656 544.929810,246.485535 545.629333,245.748413 
	C544.106934,245.163635 542.584595,244.578857 541.062195,243.994080 
	C534.448914,231.338943 528.895203,217.967407 520.947876,206.214294 
	C511.517303,192.267563 500.026489,179.713943 489.640198,166.223801 
	C491.755005,164.524521 493.658112,163.158051 495.561249,161.791565 
z"/>
<path fill="#1B1B1B" opacity="1.000000" stroke="none" 
	d="
M355.462646,237.010223 
	C355.901398,257.418945 355.995483,277.835052 356.041107,298.251282 
	C356.075287,313.526917 356.047028,328.802643 355.948700,344.537842 
	C352.135803,345.428131 350.640442,343.722931 350.973541,340.077881 
	C351.093506,338.765320 351.379364,337.152252 350.791321,336.140076 
	C345.589600,327.187103 348.259735,317.490204 348.069641,308.114380 
	C347.796753,294.653992 347.999908,281.183929 348.000061,267.718018 
	C348.000122,261.654114 347.531830,255.542114 348.147705,249.541397 
	C348.649719,244.650162 349.492737,239.349686 355.462646,237.010223 
z"/>
<path fill="#706B70" opacity="1.000000" stroke="none" 
	d="
M410.855835,541.766174 
	C421.421661,536.561890 432.190430,531.727478 442.506195,526.067505 
	C458.296661,517.403687 472.735992,506.746887 485.995392,494.522919 
	C487.581268,493.060913 489.129028,491.379761 491.018341,490.481018 
	C492.525696,489.764008 494.526459,490.084259 496.308228,489.944092 
	C496.142548,491.883850 496.722107,494.513641 495.678650,495.640594 
	C491.736511,499.897980 487.419128,503.847809 482.969635,507.588562 
	C461.646210,525.515320 438.062683,539.592590 411.379913,548.592834 
	C410.961517,546.086426 410.908691,543.926331 410.855835,541.766174 
z"/>
<path fill="#797579" opacity="1.000000" stroke="none" 
	d="
M545.863831,256.454346 
	C547.720703,255.056686 549.595154,254.046371 551.843445,252.996582 
	C558.694946,269.123840 562.540527,285.924316 563.951233,303.253540 
	C564.558350,310.711426 564.675903,318.213776 564.842773,325.699799 
	C564.886230,327.651398 564.731567,329.868103 563.827148,331.495941 
	C563.129639,332.751312 561.111511,333.909668 559.690002,333.898560 
	C558.767273,333.891357 557.209351,331.777313 557.064026,330.480835 
	C556.509216,325.529816 556.167664,320.526611 556.186157,315.544556 
	C556.261108,295.347565 552.245422,275.894745 545.863831,256.454346 
z"/>
<path fill="#ECECEC" opacity="1.000000" stroke="none" 
	d="
M237.999985,355.620911 
	C225.278656,355.619446 213.057327,355.619446 200.208923,355.619446 
	C202.530746,351.022614 205.196625,347.926636 209.826035,347.910522 
	C229.105972,347.843323 248.387955,347.882294 267.664124,348.194611 
	C269.061157,348.217255 270.417725,350.735474 271.793121,352.093414 
	C270.338135,353.252014 268.914886,355.364624 267.423004,355.414246 
	C257.790344,355.734650 248.142715,355.604614 237.999985,355.620911 
z"/>
<path fill="#7F7C7F" opacity="1.000000" stroke="none" 
	d="
M188.168640,148.403427 
	C173.245834,160.666824 159.288223,173.894089 147.425064,189.212021 
	C145.494019,191.705444 143.573456,194.206985 141.048080,196.755356 
	C138.496338,195.858612 136.544571,194.911285 134.592789,193.963943 
	C143.588257,183.084991 152.045837,171.694611 161.749451,161.488953 
	C169.505630,153.331467 178.777954,146.615524 187.728851,139.502823 
	C188.109772,142.631744 188.139206,145.517578 188.168640,148.403427 
z"/>
<path fill="#434244" opacity="1.000000" stroke="none" 
	d="
M275.395233,591.018433 
	C276.902985,590.291931 278.813843,589.664612 280.709778,588.994995 
	C282.781342,588.263306 284.839050,587.492371 286.957153,586.342041 
	C304.609375,586.950500 322.201630,588.079346 339.808807,588.878601 
	C344.548309,589.093811 349.333313,588.307495 354.540802,587.981689 
	C355.895386,589.797974 356.806580,591.613342 357.858459,593.740479 
	C353.478760,594.691162 348.972839,595.738892 344.435516,595.899841 
	C322.222809,596.687683 300.095581,595.713379 278.156921,591.859436 
	C277.348969,591.717407 276.579285,591.357361 275.395233,591.018433 
z"/>
<path fill="#59585C" opacity="1.000000" stroke="none" 
	d="
M98.853027,276.699890 
	C98.853035,276.699890 98.784966,276.362549 99.183716,276.156189 
	C102.036194,274.632141 104.489929,273.314423 106.943672,271.996735 
	C101.323891,295.721832 99.306252,319.785522 100.046516,344.124207 
	C100.137665,347.120789 101.059944,351.609161 96.673309,351.655609 
	C92.469231,351.700134 92.929817,347.285309 93.048271,344.240906 
	C93.692879,327.672516 94.473717,311.109406 95.823532,294.221680 
	C97.319214,292.727386 98.413055,291.658752 99.035271,290.363525 
	C100.421944,287.476990 101.572952,284.477234 102.865486,281.415863 
	C101.750587,280.105499 100.301811,278.402679 98.853027,276.699890 
z"/>
<path fill="#959497" opacity="1.000000" stroke="none" 
	d="
M433.878937,125.746964 
	C416.102051,117.791626 398.193268,110.213173 378.930817,106.497574 
	C377.472015,106.216179 376.018372,105.907745 374.273926,104.932510 
	C373.988312,102.180130 373.991150,100.107132 373.993988,98.034126 
	C387.469604,99.285095 400.102020,103.602364 412.535828,108.638382 
	C419.574615,111.489296 426.608734,114.351776 433.825989,117.838394 
	C433.964325,120.894150 433.921631,123.320557 433.878937,125.746964 
z"/>
<path fill="#67656A" opacity="1.000000" stroke="none" 
	d="
M134.326904,194.126801 
	C136.544571,194.911285 138.496338,195.858612 140.776306,196.949799 
	C133.306015,211.549866 125.507866,226.006256 117.708389,240.461945 
	C117.078072,241.630173 116.438606,242.793472 115.329010,243.876465 
	C112.525627,244.202789 110.196625,244.611679 107.867622,245.020569 
	C113.920029,226.727203 122.988289,209.990967 134.326904,194.126801 
z"/>
<path fill="#B8B7B8" opacity="1.000000" stroke="none" 
	d="
M474.981079,113.049210 
	C476.244232,111.137573 477.662964,109.486938 479.533508,107.785187 
	C488.068726,114.002129 496.285278,120.107887 504.190857,126.592720 
	C509.896759,131.273132 515.189026,136.457779 520.525757,141.931900 
	C519.124451,144.318024 517.863159,146.189789 516.601807,148.061554 
	C502.780090,136.477768 488.958374,124.893997 474.981079,113.049210 
z"/>
<path fill="#67656A" opacity="1.000000" stroke="none" 
	d="
M410.471375,541.808716 
	C410.908691,543.926331 410.961517,546.086426 411.007629,548.626465 
	C395.051514,555.363892 378.589417,559.567078 360.975616,560.657837 
	C360.683228,558.593750 360.836975,556.677490 360.931458,554.430481 
	C377.277100,550.016968 393.682007,545.934143 410.471375,541.808716 
z"/>
<path fill="#848184" opacity="1.000000" stroke="none" 
	d="
M188.486328,148.258331 
	C188.139206,145.517578 188.109772,142.631744 188.047699,139.399734 
	C188.451035,138.678604 188.887039,138.303619 189.827118,138.160339 
	C191.705734,138.152206 193.080261,137.912384 194.454803,137.672546 
	C194.033401,136.970200 193.612015,136.267868 193.190628,135.565521 
	C194.242203,134.688995 195.293762,133.812454 196.680038,133.219513 
	C197.308044,134.214340 197.601349,134.925598 197.894653,135.636856 
	C198.256546,135.429352 198.618439,135.221832 198.980316,135.014328 
	C198.425339,134.209000 197.870361,133.403671 197.315384,132.598358 
	C208.295166,126.400024 219.274933,120.201691 230.622375,114.400589 
	C231.371033,117.021141 231.752014,119.244461 232.132996,121.467773 
	C217.689987,130.349594 203.246994,139.231415 188.486328,148.258331 
z"/>
<path fill="#A6A5A6" opacity="1.000000" stroke="none" 
	d="
M571.177490,214.562469 
	C569.201050,215.579971 567.156128,216.240234 564.905945,217.271606 
	C558.667480,207.273926 552.668884,196.884781 546.580261,186.548676 
	C544.738525,183.422119 542.647461,180.442444 540.818848,176.704773 
	C541.231262,174.504822 541.495605,172.995636 541.745911,171.566132 
	C543.004028,171.509308 544.243896,171.453308 545.483765,171.397293 
	C545.483765,171.397293 545.499268,171.512131 545.355713,171.909409 
	C545.379211,173.028259 545.546326,173.749847 545.713440,174.471436 
	C546.219116,174.193161 546.724792,173.914856 547.230469,173.636566 
	C555.190002,187.159454 563.149536,200.682343 571.177490,214.562469 
z"/>
<path fill="#848184" opacity="1.000000" stroke="none" 
	d="
M495.399902,161.479233 
	C493.658112,163.158051 491.755005,164.524521 489.520935,165.921555 
	C480.811096,158.905930 472.432220,151.859756 464.158173,144.317749 
	C465.158142,139.488800 462.260071,140.109741 459.681213,140.313782 
	C459.681213,140.313782 459.926666,140.313431 459.912262,139.905945 
	C460.800476,137.927750 461.703125,136.357040 462.605743,134.786346 
	C469.479401,139.893387 476.353088,145.000427 483.098206,150.559265 
	C483.035675,151.815582 483.101654,152.620087 483.167664,153.424591 
	C483.901306,153.038788 484.634949,152.653015 485.368591,152.267242 
	C488.658569,155.233795 491.948547,158.200333 495.399902,161.479233 
z"/>
<path fill="#AEADAE" opacity="1.000000" stroke="none" 
	d="
M545.435486,171.085495 
	C544.243896,171.453308 543.004028,171.509308 541.745911,171.566132 
	C541.495605,172.995636 541.231262,174.504822 540.796143,176.373413 
	C532.692810,167.354950 524.760193,157.977112 516.714722,148.330414 
	C517.863159,146.189789 519.124451,144.318024 520.659973,142.235046 
	C529.085144,151.607132 537.236206,161.190414 545.435486,171.085495 
z"/>
<path fill="#1B1B1B" opacity="1.000000" stroke="none" 
	d="
M329.733459,191.074280 
	C330.239471,195.138565 330.424988,199.281952 330.422791,203.425247 
	C330.400848,244.645615 330.347839,285.865967 330.196289,327.544678 
	C329.392487,326.740662 328.087433,325.478058 328.087891,324.215912 
	C328.101990,286.140137 328.259430,248.064407 328.349121,209.988571 
	C328.360443,205.182510 328.011292,200.374634 328.065125,195.570236 
	C328.081635,194.093414 328.883575,192.625397 329.733459,191.074280 
z"/>
<path fill="#DFDEDE" opacity="1.000000" stroke="none" 
	d="
M298.410706,95.712669 
	C298.891937,97.839363 298.938690,100.001541 298.984619,102.625824 
	C287.922943,105.041977 276.862061,106.996017 265.427856,108.604889 
	C264.021362,106.483063 262.988220,104.706398 261.955048,102.929733 
	C273.962097,100.535873 285.969147,98.142014 298.410706,95.712669 
z"/>
<path fill="#ECECEC" opacity="1.000000" stroke="none" 
	d="
M228.039917,327.158905 
	C224.715988,327.156647 221.785370,327.592621 219.092941,326.980652 
	C217.639694,326.650360 215.897308,324.659912 215.614090,323.166504 
	C215.431564,322.204132 217.627899,319.769806 218.814224,319.731445 
	C227.625732,319.446564 236.457535,319.440430 245.265213,319.791687 
	C246.480713,319.840210 248.221313,322.217438 248.511871,323.746033 
	C248.668732,324.571228 246.332642,326.727020 245.011200,326.826965 
	C239.541153,327.240570 234.029099,327.098602 228.039917,327.158905 
z"/>
<path fill="#8C898C" opacity="1.000000" stroke="none" 
	d="
M462.433655,134.474091 
	C461.703125,136.357040 460.800476,137.927750 459.792206,139.931396 
	C457.667542,139.425400 455.568756,138.625656 453.644104,137.522110 
	C447.157043,133.802536 440.731903,129.974960 434.080994,125.967827 
	C433.921631,123.320557 433.964325,120.894150 434.077026,118.069519 
	C443.518555,123.168137 452.890045,128.664978 462.433655,134.474091 
z"/>
<path fill="#5F5C61" opacity="1.000000" stroke="none" 
	d="
M107.698303,245.327911 
	C110.196625,244.611679 112.525627,244.202789 115.070763,244.127930 
	C112.551498,253.386642 109.816093,262.311340 107.012177,271.616394 
	C104.489929,273.314423 102.036194,274.632141 99.218597,275.987701 
	C101.746155,265.895447 104.637573,255.765350 107.698303,245.327911 
z"/>
<path fill="#F3F3F3" opacity="1.000000" stroke="none" 
	d="
M63.143852,328.490173 
	C65.220932,328.413086 67.160431,328.661560 69.458237,329.004028 
	C72.098953,331.039001 74.381371,332.980011 76.684776,334.938873 
	C75.230682,337.656860 74.350487,339.588715 73.219894,341.360809 
	C70.035072,346.352692 65.104393,346.749237 61.189278,342.387146 
	C60.412991,341.522247 59.751797,340.553864 59.039371,339.631775 
	C55.616146,335.201202 55.812691,333.993256 60.357502,330.936127 
	C61.292679,330.307037 62.125999,329.526489 63.143852,328.490173 
z"/>
<path fill="#F3F3F3" opacity="1.000000" stroke="none" 
	d="
M587.885132,328.329254 
	C589.508545,327.771606 590.948608,327.498352 592.739502,327.114716 
	C595.221008,329.690277 597.351624,332.376190 599.553406,335.151917 
	C596.644592,338.904633 596.897400,346.732239 590.010864,344.998627 
	C585.928162,343.970825 582.796814,339.164124 579.084290,335.922638 
	C582.729858,332.830597 585.215759,330.722137 587.885132,328.329254 
z"/>
<path fill="#5F5C61" opacity="1.000000" stroke="none" 
	d="
M251.317490,551.197388 
	C251.985229,549.159058 252.986130,547.287476 254.029175,545.032349 
	C262.487915,546.934692 270.904510,549.220520 279.655731,552.145264 
	C279.942444,554.636475 279.894501,556.488708 279.846558,558.341003 
	C270.447937,556.015381 261.049286,553.689697 251.317490,551.197388 
z"/>
<path fill="#A6A5A6" opacity="1.000000" stroke="none" 
	d="
M261.561584,102.882576 
	C262.988220,104.706398 264.021362,106.483063 265.027222,108.628754 
	C258.941864,111.129395 252.883835,113.261002 246.428253,114.947266 
	C245.842148,112.396790 245.653564,110.291664 245.464966,108.186523 
	C250.699341,106.402817 255.933716,104.619110 261.561584,102.882576 
z"/>
<path fill="#67656A" opacity="1.000000" stroke="none" 
	d="
M280.161011,558.560791 
	C279.894501,556.488708 279.942444,554.636475 279.977661,552.322571 
	C286.037720,552.577759 292.110413,553.294617 298.628296,554.034668 
	C298.368500,556.108948 297.663513,558.160034 297.006714,560.585205 
	C291.528442,560.233093 286.001984,559.506836 280.161011,558.560791 
z"/>
<path fill="#959497" opacity="1.000000" stroke="none" 
	d="
M245.095001,108.231506 
	C245.653564,110.291664 245.842148,112.396790 246.043182,115.031067 
	C241.651138,117.449127 237.246658,119.338051 232.487579,121.347374 
	C231.752014,119.244461 231.371033,117.021141 230.984177,114.370575 
	C235.560547,112.054382 240.142792,110.165436 245.095001,108.231506 
z"/>
<path fill="#A6A5A6" opacity="1.000000" stroke="none" 
	d="
M373.564392,97.952156 
	C373.991150,100.107132 373.988312,102.180130 373.973022,104.700119 
	C369.831543,104.567734 365.702545,103.988365 361.255188,103.137924 
	C360.865204,100.985809 360.793549,99.104774 360.758606,96.823082 
	C364.908478,96.905014 369.021637,97.387604 373.564392,97.952156 
z"/>
<path fill="#959497" opacity="1.000000" stroke="none" 
	d="
M65.387695,368.566345 
	C64.364586,364.631805 63.531345,360.884125 63.274666,357.097351 
	C63.243202,356.633148 66.298637,355.959747 67.923531,355.383270 
	C68.613815,358.638092 69.738678,361.889374 69.765297,365.149597 
	C69.774986,366.335815 67.166756,367.543457 65.387695,368.566345 
z"/>
<path fill="#B8B7B8" opacity="1.000000" stroke="none" 
	d="
M590.130249,367.939758 
	C586.437744,365.283386 585.861938,357.987793 589.141357,355.841492 
	C590.295105,355.086426 593.224915,355.409607 594.226440,356.386230 
	C596.556458,358.658417 593.855347,366.407349 590.130249,367.939758 
z"/>
<path fill="#5F5C61" opacity="1.000000" stroke="none" 
	d="
M98.602776,277.009949 
	C100.301811,278.402679 101.750587,280.105499 102.865486,281.415863 
	C101.572952,284.477234 100.421944,287.476990 99.035271,290.363525 
	C98.413055,291.658752 97.319214,292.727386 96.029999,293.890930 
	C96.531250,288.362030 97.441887,282.841003 98.602776,277.009949 
z"/>
<path fill="#1B1B1B" opacity="1.000000" stroke="none" 
	d="
M338.884979,334.929260 
	C338.373779,328.578247 338.303894,322.187408 338.350281,315.407349 
	C339.299835,315.804962 340.823792,316.566071 340.854218,317.382843 
	C341.050659,322.660187 340.968353,327.950867 340.830017,333.233337 
	C340.815277,333.798126 339.850403,334.338013 338.884979,334.929260 
z"/>
<path fill="#1B1B1B" opacity="1.000000" stroke="none" 
	d="
M338.885040,302.936310 
	C338.371552,300.182251 338.290619,297.388031 338.324646,294.228271 
	C341.756134,295.970703 342.076782,299.269470 338.885040,302.936310 
z"/>
<path fill="#EFEFEF" opacity="1.000000" stroke="none" 
	d="
M340.414764,222.527191 
	C342.563141,222.248779 345.159027,222.016586 347.894592,222.109985 
	C345.643585,222.481522 343.252930,222.527466 340.414764,222.527191 
z"/>
<path fill="#797579" opacity="1.000000" stroke="none" 
	d="
M541.068848,244.320709 
	C542.584595,244.578857 544.106934,245.163635 545.629333,245.748413 
	C544.929810,246.485535 544.230286,247.222656 543.167603,248.000916 
	C542.228088,246.910477 541.651794,245.778900 541.068848,244.320709 
z"/>
<path fill="#8C898C" opacity="1.000000" stroke="none" 
	d="
M459.628418,140.643311 
	C462.260071,140.109741 465.158142,139.488800 463.956604,144.042389 
	C462.291992,143.166168 460.933777,142.069504 459.628418,140.643311 
z"/>
<path fill="#ECECEC" opacity="1.000000" stroke="none" 
	d="
M432.340088,222.190430 
	C434.255707,221.975952 436.523499,221.913452 438.914246,222.186096 
	C436.922241,222.461624 434.807220,222.402023 432.340088,222.190430 
z"/>
<path fill="#7F7C7F" opacity="1.000000" stroke="none" 
	d="
M192.924225,135.642380 
	C193.612015,136.267868 194.033401,136.970200 194.454803,137.672546 
	C193.080261,137.912384 191.705734,138.152206 190.113342,138.087769 
	C190.816269,137.095413 191.737045,136.407318 192.924225,135.642380 
z"/>
<path fill="#ECECEC" opacity="1.000000" stroke="none" 
	d="
M422.295929,222.187836 
	C423.835907,221.849487 425.684357,221.658875 427.773071,221.753189 
	C426.210358,222.137268 424.407379,222.236420 422.295929,222.187836 
z"/>
<path fill="#434244" opacity="1.000000" stroke="none" 
	d="
M248.838684,576.692932 
	C247.124268,577.637268 244.869446,579.631287 244.009064,575.370361 
	C245.536850,575.477661 247.073135,575.957886 248.838684,576.692932 
z"/>
<path fill="#1B1B1B" opacity="1.000000" stroke="none" 
	d="
M329.793213,180.052155 
	C330.250031,181.379791 330.329956,182.764847 330.281311,184.549179 
	C326.776489,183.811935 327.508850,182.050171 329.793213,180.052155 
z"/>
<path fill="#434244" opacity="1.000000" stroke="none" 
	d="
M246.167511,583.301453 
	C247.966858,581.971436 249.912949,581.223572 250.962372,584.618774 
	C249.466690,584.494751 247.930695,584.026184 246.167511,583.301453 
z"/>
<path fill="#1B1B1B" opacity="1.000000" stroke="none" 
	d="
M355.617798,377.009277 
	C356.095062,377.158813 356.195038,377.317444 356.297791,378.018311 
	C356.302795,378.995605 356.304993,379.430664 356.307190,379.865723 
	C355.271484,379.424530 354.235748,378.983307 353.200043,378.542114 
	C353.880219,378.034210 354.560364,377.526276 355.617798,377.009277 
z"/>
<path fill="#1B1B1B" opacity="1.000000" stroke="none" 
	d="
M355.537537,367.011353 
	C355.963531,367.755493 356.029297,368.508911 355.994598,369.630035 
	C354.988098,369.535370 354.082092,369.072968 353.176056,368.610565 
	C353.843140,368.080597 354.510254,367.550598 355.537537,367.011353 
z"/>
<path fill="#7F7C7F" opacity="1.000000" stroke="none" 
	d="
M485.270416,152.044632 
	C484.634949,152.653015 483.901306,153.038788 483.167664,153.424591 
	C483.101654,152.620087 483.035675,151.815582 483.304291,150.835083 
	C484.150024,151.046738 484.661133,151.434387 485.270416,152.044632 
z"/>
<path fill="#ECECEC" opacity="1.000000" stroke="none" 
	d="
M367.253296,222.365997 
	C367.871002,222.014893 368.786285,221.778519 369.855896,221.785858 
	C369.190491,222.179947 368.370697,222.330322 367.253296,222.365997 
z"/>
<path fill="#434244" opacity="1.000000" stroke="none" 
	d="
M274.825134,583.644165 
	C274.064362,583.805359 273.077576,583.724365 272.046112,583.311768 
	C272.867310,583.120850 273.733215,583.261414 274.825134,583.644165 
z"/>
<path fill="#7F7C7F" opacity="1.000000" stroke="none" 
	d="
M197.229706,132.618011 
	C197.870361,133.403671 198.425339,134.209000 198.980316,135.014328 
	C198.618439,135.221832 198.256546,135.429352 197.894653,135.636856 
	C197.601349,134.925598 197.308044,134.214340 197.014832,133.130035 
	C197.014938,132.757004 197.144043,132.637680 197.229706,132.618011 
z"/>
<path fill="#AEADAE" opacity="1.000000" stroke="none" 
	d="
M547.151733,173.363159 
	C546.724792,173.914856 546.219116,174.193161 545.713440,174.471436 
	C545.546326,173.749847 545.379211,173.028259 545.395752,171.951233 
	C546.077271,172.093781 546.575195,172.591766 547.151733,173.363159 
z"/>
<path fill="#EFEFEF" opacity="1.000000" stroke="none" 
	d="
M356.597870,379.816589 
	C356.304993,379.430664 356.302795,378.995605 356.436279,378.263184 
	C357.052277,378.396210 357.532593,378.826599 358.040283,379.517822 
	C357.674591,379.774872 357.281586,379.771149 356.597870,379.816589 
z"/>
<path fill="#1B1B1B" opacity="1.000000" stroke="none" 
	d="
M338.753967,339.933167 
	C338.334900,339.508026 338.281342,339.079926 338.337433,338.343506 
	C339.100433,338.322815 339.753754,338.610504 340.407104,338.898193 
	C339.977905,339.242188 339.548737,339.586212 338.753967,339.933167 
z"/>
</svg>