<?xml version="1.0" encoding="UTF-8"?>
<svg xmlns="http://www.w3.org/2000/svg" xmlns:xlink="http://www.w3.org/1999/xlink" width="300px" height="300px" viewBox="0 0 300 300" version="1.1">
<g id="surface1">
<path style=" stroke:none;fill-rule:nonzero;fill:rgb(99.607843%,99.607843%,99.607843%);fill-opacity:1;" d="M 300.457031 112.957031 C 300.457031 175.609375 300.457031 238.035156 300.457031 300.457031 C 200.457031 300.457031 100.457031 300.457031 0.457031 300.457031 C 0.457031 200.457031 0.457031 100.457031 0.457031 0.457031 C 100.457031 0.457031 200.457031 0.457031 300.457031 0.457031 C 300.457031 37.882812 300.457031 75.304688 300.457031 112.957031 M 295.722656 169.738281 C 297.796875 153.671875 297.488281 137.664062 294.273438 121.773438 C 287.503906 88.308594 271.441406 60.078125 245.261719 38.15625 C 209.316406 8.058594 167.851562 -2.78125 121.777344 5.820312 C 88.304688 12.070312 60.210938 28.492188 38.300781 54.574219 C 8.132812 90.484375 -2.75 131.945312 5.769531 178.015625 C 11.960938 211.484375 28.382812 239.578125 54.40625 261.570312 C 88.089844 290.035156 127.113281 301.378906 170.832031 295.429688 C 203.683594 290.957031 231.796875 276.496094 254.984375 252.863281 C 277.59375 229.820312 291.023438 202.101562 295.722656 169.738281 Z M 295.722656 169.738281 "/>
<path style=" stroke:none;fill-rule:nonzero;fill:rgb(12.156863%,12.156863%,12.156863%);fill-opacity:1;" d="M 295.675781 169.9375 C 291.023438 202.101562 277.59375 229.820312 254.984375 252.863281 C 231.796875 276.496094 203.683594 290.957031 170.832031 295.429688 C 127.113281 301.378906 88.089844 290.035156 54.40625 261.570312 C 28.382812 239.578125 11.960938 211.484375 5.769531 178.015625 C -2.75 131.945312 8.132812 90.484375 38.300781 54.574219 C 60.210938 28.492188 88.304688 12.070312 121.777344 5.820312 C 167.851562 -2.78125 209.316406 8.058594 245.261719 38.15625 C 271.441406 60.078125 287.503906 88.308594 294.273438 121.773438 C 297.488281 137.664062 297.796875 153.671875 295.675781 169.9375 M 163.210938 173.675781 C 163.390625 173.675781 163.570312 173.675781 163.960938 173.9375 C 166.402344 174.617188 166.410156 173.007812 166.410156 171.351562 C 166.398438 148.914062 166.402344 126.472656 166.351562 104.035156 C 166.351562 102.800781 166.554688 101.96875 168.085938 101.746094 C 168.460938 101.675781 168.835938 101.605469 169.628906 101.632812 C 177.414062 101.605469 185.199219 101.574219 193.265625 101.679688 C 194.089844 101.632812 194.914062 101.585938 196.09375 101.644531 C 196.582031 101.609375 197.066406 101.574219 197.878906 101.679688 C 198.84375 101.707031 199.8125 101.734375 201.132812 101.890625 C 209.160156 103.207031 214.265625 109.835938 213.59375 118.074219 C 212.992188 125.457031 206.847656 130.824219 198.898438 130.855469 C 190.820312 130.886719 182.746094 130.863281 174.667969 130.871094 C 173.960938 130.871094 173.25 130.9375 172.28125 130.988281 C 175.464844 136.015625 178.503906 140.738281 181.46875 145.507812 C 196.210938 169.238281 210.941406 192.976562 225.648438 216.730469 C 226.441406 218.011719 227.300781 218.652344 228.917969 218.628906 C 236.15625 218.535156 243.394531 218.589844 250.632812 218.574219 C 251.257812 218.570312 251.886719 218.460938 252.808594 218.375 C 239.011719 195.671875 225.402344 173.277344 211.742188 150.804688 C 212.371094 150.496094 212.765625 150.273438 213.183594 150.105469 C 232.125 142.480469 240.851562 118.511719 230.855469 99.617188 C 224.109375 86.867188 213.421875 79.972656 198.78125 79.878906 C 183.925781 79.789062 169.066406 79.886719 154.210938 79.75 C 152.109375 79.730469 151.019531 80.132812 150.648438 82.367188 C 149.773438 83.253906 149.441406 84.058594 151.109375 84.863281 C 151.066406 85.691406 151.023438 86.519531 150.605469 87.417969 C 150.402344 88.089844 150.039062 88.761719 150.03125 89.4375 C 150.003906 91.632812 150.164062 93.832031 150.160156 96.03125 C 150.117188 113.445312 150.046875 130.855469 150.039062 148.269531 C 150.039062 148.847656 150.636719 149.425781 151.082031 150.351562 C 151.148438 151.925781 151.078125 153.523438 151.347656 155.0625 C 151.472656 155.792969 152.25 156.410156 152.730469 157.078125 C 153.402344 156.539062 154.078125 156 155.085938 155.457031 C 155.28125 155.296875 155.476562 155.140625 155.675781 154.984375 C 155.375 154.851562 155.078125 154.722656 154.671875 154.246094 C 154.707031 153.894531 154.742188 153.539062 155.179688 153.152344 C 155.417969 152.898438 155.859375 152.652344 155.867188 152.394531 C 155.929688 149.976562 155.96875 147.558594 155.878906 145.144531 C 155.863281 144.769531 155.167969 144.421875 154.679688 143.695312 C 154.714844 141.980469 154.746094 140.269531 155.175781 138.519531 C 156.4375 136.859375 156.289062 135.351562 154.667969 134.03125 C 154.648438 123.898438 154.609375 113.769531 154.640625 103.636719 C 154.644531 103.003906 155.183594 102.375 155.882812 101.785156 C 156.976562 101.765625 158.070312 101.746094 159.554688 101.839844 C 162.941406 102.003906 162.945312 102.003906 162.863281 105.453125 C 162.839844 106.429688 162.773438 107.40625 162.390625 108.390625 C 159.828125 109.457031 159.445312 111.882812 159.214844 114.121094 C 158.933594 116.863281 159.144531 119.660156 159.144531 122.433594 C 159.144531 128.589844 159.054688 134.75 159.179688 140.90625 C 159.265625 145.195312 158.042969 149.628906 160.421875 153.722656 C 160.691406 154.183594 160.5625 154.921875 160.507812 155.523438 C 160.355469 157.191406 161.039062 157.96875 162.832031 158.191406 C 162.808594 161.40625 162.78125 164.621094 162.429688 167.84375 C 162.125 168.085938 161.820312 168.328125 161.511719 168.570312 C 161.929688 168.785156 162.34375 168.996094 162.851562 169.597656 C 162.835938 170.535156 162.820312 171.472656 162.457031 172.417969 C 162.148438 172.648438 161.835938 172.882812 161.523438 173.113281 C 162 173.316406 162.472656 173.515625 163.210938 173.675781 M 111.917969 49.515625 C 109.820312 50.378906 107.726562 51.246094 105.300781 52.136719 C 100.277344 54.96875 95.257812 57.804688 90.15625 60.65625 C 90.15625 60.65625 90.097656 60.710938 89.792969 60.792969 C 89.3125 61.195312 88.832031 61.59375 88.105469 62.066406 C 87.683594 62.382812 87.261719 62.695312 86.582031 63.078125 C 86.382812 63.25 86.183594 63.421875 85.691406 63.6875 C 81.757812 67.050781 77.519531 70.121094 73.972656 73.851562 C 69.53125 78.519531 65.664062 83.726562 61.308594 88.851562 C 56.246094 96.03125 52.097656 103.6875 49.175781 112.332031 C 47.851562 116.964844 46.53125 121.597656 45.175781 126.386719 C 45.175781 126.386719 45.207031 126.539062 44.976562 126.824219 C 44.5625 129.347656 44.144531 131.871094 43.539062 134.699219 C 43.203125 142.277344 42.847656 149.851562 42.550781 157.425781 C 42.5 158.820312 42.289062 160.839844 44.210938 160.816406 C 46.214844 160.796875 45.792969 158.746094 45.753906 157.375 C 45.414062 146.242188 46.335938 135.238281 48.96875 124.039062 C 50.222656 119.960938 51.472656 115.878906 52.957031 111.566406 C 53.25 111.035156 53.542969 110.5 53.828125 109.96875 C 57.398438 103.355469 60.964844 96.746094 64.777344 89.957031 C 65.660156 88.8125 66.535156 87.671875 67.421875 86.53125 C 72.84375 79.523438 79.226562 73.476562 86.34375 67.734375 C 92.949219 63.671875 99.554688 59.609375 106.484375 55.4375 C 108.496094 54.574219 110.511719 53.710938 112.878906 52.769531 C 115.648438 51.796875 118.417969 50.820312 121.554688 49.824219 C 126.613281 48.929688 131.671875 48.039062 137.054688 47.351562 C 137.492188 47.421875 137.953125 47.605469 138.371094 47.539062 C 144.101562 46.648438 147.109375 49.667969 148.800781 54.679688 C 149.125 55.628906 149.667969 56.503906 150.148438 57.5 C 152.347656 56.527344 152.839844 54.769531 153.164062 52.980469 C 153.636719 50.367188 155.242188 48.738281 157.671875 48.148438 C 160.082031 47.5625 162.59375 47.394531 165.355469 47.289062 C 167.242188 47.554688 169.128906 47.820312 171.292969 48.296875 C 171.960938 48.433594 172.625 48.574219 173.292969 48.703125 C 182.101562 50.402344 190.289062 53.867188 198.605469 57.707031 C 201.554688 59.441406 204.492188 61.191406 207.460938 62.890625 C 208.339844 63.394531 209.300781 63.761719 210.332031 64.167969 C 210.332031 64.167969 210.21875 64.167969 210.171875 64.46875 C 210.792969 64.972656 211.414062 65.472656 212.21875 66.226562 C 216.050781 69.449219 219.882812 72.671875 223.824219 76.167969 C 228.671875 82.1875 233.925781 87.925781 238.238281 94.304688 C 241.871094 99.679688 244.414062 105.796875 247.441406 111.882812 C 247.707031 112.398438 247.96875 112.917969 248.28125 113.769531 C 248.730469 114.878906 249.175781 115.992188 249.640625 117.457031 C 252.550781 126.171875 254.386719 135.066406 254.351562 144.304688 C 254.34375 146.582031 254.5 148.871094 254.753906 151.132812 C 254.820312 151.726562 255.535156 152.695312 255.957031 152.699219 C 256.605469 152.703125 257.527344 152.171875 257.847656 151.597656 C 258.261719 150.855469 258.332031 149.839844 258.3125 148.949219 C 258.234375 145.523438 258.183594 142.09375 257.90625 138.683594 C 257.257812 130.757812 255.5 123.074219 252.507812 115.332031 C 249.644531 106.882812 245.746094 98.910156 240.804688 91.515625 C 237.421875 86.449219 233.503906 81.738281 229.742188 76.929688 C 228.875 75.816406 227.675781 74.960938 226.480469 73.703125 C 224.976562 72.347656 223.472656 70.992188 221.878906 69.429688 C 221.644531 69.253906 221.410156 69.078125 220.988281 68.648438 C 217.84375 66.3125 214.699219 63.976562 211.398438 61.355469 C 207.113281 58.839844 202.828125 56.328125 198.3125 53.601562 C 195.09375 52.296875 191.878906 50.984375 188.660156 49.683594 C 182.972656 47.378906 177.195312 45.40625 170.640625 44.757812 C 168.761719 44.535156 166.878906 44.316406 164.636719 43.976562 C 163.285156 43.800781 161.933594 43.496094 160.582031 43.476562 C 158.222656 43.4375 156.136719 43.160156 154.636719 40.921875 C 154.039062 40.023438 152.699219 39.625 151.695312 39 C 151.832031 38.960938 151.96875 38.921875 152.105469 38.886719 C 151.542969 37.753906 150.980469 36.621094 150.414062 35.488281 C 149.566406 36.125 148.257812 36.585938 147.941406 37.421875 C 146.316406 41.6875 143.230469 43.46875 138.839844 43.453125 C 138.117188 43.449219 137.390625 43.648438 136.269531 43.789062 C 130.777344 44.882812 125.289062 45.976562 119.4375 47.027344 C 117.042969 47.84375 114.648438 48.660156 111.917969 49.515625 M 128.265625 255.539062 C 130.792969 255.871094 133.320312 256.203125 136.21875 256.613281 C 138.332031 256.859375 140.457031 257.019531 142.554688 257.367188 C 145.472656 257.855469 147.144531 259.675781 147.867188 262.515625 C 148.0625 263.273438 148.796875 264.035156 149.488281 264.464844 C 149.8125 264.667969 150.957031 264.253906 151.15625 263.84375 C 152.097656 261.871094 153.25 260.417969 155.226562 259.121094 C 156.492188 258.292969 157.5625 257.574219 159.035156 257.347656 C 160.988281 257.042969 162.929688 256.671875 165.285156 256.464844 C 173.136719 255.898438 180.664062 253.976562 188.296875 251.039062 C 200.332031 246.765625 211.117188 240.328125 220.871094 232.128906 C 222.90625 230.417969 224.878906 228.613281 226.683594 226.664062 C 227.160156 226.148438 226.894531 224.945312 226.96875 224.058594 C 226.15625 224.125 225.242188 223.976562 224.550781 224.304688 C 223.6875 224.714844 222.980469 225.484375 222.253906 226.152344 C 216.191406 231.742188 209.585938 236.617188 202.367188 240.578125 C 197.648438 243.167969 192.722656 245.378906 187.539062 247.796875 C 180.039062 249.664062 172.535156 251.53125 164.644531 253.363281 C 163.15625 253.214844 161.621094 252.761719 160.183594 252.976562 C 156.464844 253.527344 154.347656 251.777344 152.96875 248.617188 C 152.511719 247.574219 151.957031 246.574219 151.488281 245.539062 C 151.070312 244.617188 150.707031 243.671875 150.320312 242.738281 C 150.03125 242.675781 149.742188 242.613281 149.453125 242.554688 C 148.730469 244.023438 147.804688 245.433594 147.328125 246.980469 C 146.222656 250.570312 144.78125 252.503906 141.273438 252.738281 C 139.765625 252.839844 138.269531 253.160156 136.363281 253.359375 C 133.585938 253.03125 130.808594 252.703125 127.738281 252.214844 C 123.890625 251.167969 120.039062 250.121094 115.960938 248.867188 C 114.980469 248.460938 114.011719 248.015625 113.015625 247.652344 C 101.191406 243.304688 90.589844 236.917969 81.121094 228.625 C 79.238281 226.976562 77.367188 225.3125 75.382812 223.796875 C 74.972656 223.484375 73.820312 223.546875 73.476562 223.894531 C 73.09375 224.28125 72.953125 225.355469 73.222656 225.847656 C 73.722656 226.75 74.511719 227.546875 75.324219 228.210938 C 79.785156 231.847656 84.136719 235.644531 88.816406 238.984375 C 96.769531 244.660156 105.449219 249.003906 115.085938 252.148438 C 119.382812 253.210938 123.679688 254.273438 128.265625 255.539062 M 249.464844 78.433594 C 249.464844 78.433594 249.460938 78.382812 249.414062 78.097656 C 245.6875 73.714844 241.960938 69.332031 238.109375 64.671875 C 235.605469 62.40625 233.183594 60.035156 230.574219 57.894531 C 226.960938 54.925781 223.203125 52.136719 219.289062 49.015625 C 216.792969 47.402344 214.378906 45.65625 211.796875 44.203125 C 183.082031 28.042969 152.664062 23.894531 120.621094 31.4375 C 104.339844 35.269531 89.695312 42.535156 76.042969 52.609375 C 65.578125 60.507812 56.453125 69.75 49.246094 80.691406 C 45.550781 86.304688 42.648438 92.4375 39.109375 98.492188 C 33.371094 110.351562 30.179688 122.910156 28.847656 135.964844 C 28.53125 139.054688 29.457031 142.605469 24.921875 143.691406 C 26.386719 146.023438 27.664062 148.046875 28.8125 150.375 C 28.410156 150.699219 28.03125 151.054688 27.601562 151.34375 C 25.523438 152.742188 25.433594 153.292969 27 155.320312 C 27.324219 155.742188 27.628906 156.183594 27.984375 156.578125 C 29.773438 158.574219 32.027344 158.394531 33.484375 156.109375 C 34 155.300781 34.402344 154.417969 35.070312 153.171875 C 34.015625 152.277344 32.972656 151.390625 31.859375 150.152344 C 32.832031 148.945312 33.738281 147.675781 34.792969 146.546875 C 35.996094 145.265625 36.125 143.949219 34.550781 143.1875 C 31.945312 141.929688 31.851562 139.878906 32.101562 137.488281 C 33.238281 126.714844 35.640625 116.246094 39.546875 106.128906 C 40.324219 104.105469 40.941406 102.019531 41.917969 99.777344 C 42.601562 98.601562 43.324219 97.441406 43.960938 96.242188 C 48.058594 88.496094 52.53125 80.945312 58.460938 74.492188 C 64.148438 68.304688 70.382812 62.617188 76.675781 56.632812 C 79.371094 54.714844 82.019531 52.730469 84.769531 50.894531 C 93.359375 45.152344 102.5625 40.640625 112.40625 37.472656 C 138.347656 29.121094 164.230469 29.351562 190.027344 38.101562 C 199.667969 41.371094 208.585938 46.125 217.289062 51.820312 C 223.609375 57.117188 229.929688 62.414062 236.355469 67.957031 C 239.980469 72.246094 243.609375 76.535156 247.257812 81.125 C 248.160156 82.519531 249.117188 83.882812 249.960938 85.3125 C 252.746094 90.039062 255.488281 94.789062 258.222656 99.855469 C 259.128906 102.027344 260.070312 104.1875 260.9375 106.375 C 265.027344 116.691406 267.632812 127.359375 268.449219 138.445312 C 268.597656 140.425781 268.226562 142.03125 266.292969 143.023438 C 265 143.683594 264.878906 144.660156 265.796875 145.820312 C 266.878906 147.191406 267.890625 148.617188 268.765625 150.28125 C 267.628906 151.246094 266.492188 152.210938 264.824219 153.625 C 266.523438 155.105469 267.953125 157.304688 269.820312 157.773438 C 272.972656 158.566406 272.855469 154.988281 274.1875 153.269531 C 273.179688 152 272.203125 150.773438 271.546875 149.554688 C 271.863281 149.351562 272.230469 149.199219 272.496094 148.941406 C 275.191406 146.355469 276.863281 145.703125 272.753906 142.03125 C 272.148438 141.488281 272.007812 140.292969 271.878906 139.367188 C 271.191406 134.328125 270.796875 129.242188 269.878906 124.246094 C 268.222656 115.207031 265.253906 106.5625 261.179688 97.960938 C 257.539062 91.777344 253.898438 85.589844 250.1875 79.15625 C 249.957031 78.929688 249.730469 78.703125 249.464844 78.433594 M 113.691406 263.613281 C 112.992188 263.394531 112.289062 263.175781 111.285156 262.8125 C 108.113281 261.539062 104.921875 260.316406 101.78125 258.976562 C 89.558594 253.78125 78.714844 246.453125 68.988281 237.460938 C 66.027344 234.722656 63.308594 231.722656 60.382812 228.945312 C 59.90625 228.492188 58.921875 228.578125 58.175781 228.414062 C 58.097656 229.171875 57.757812 230.03125 58 230.664062 C 58.367188 231.625 59.023438 232.546875 59.761719 233.277344 C 62.847656 236.320312 65.945312 239.351562 69.152344 242.261719 C 78.066406 250.34375 88.136719 256.691406 99.058594 261.648438 C 103.390625 263.613281 107.992188 264.992188 112.679688 266.871094 C 113.382812 267.085938 114.085938 267.300781 115.140625 267.574219 C 118.679688 268.464844 122.222656 269.355469 126.125 270.320312 C 126.484375 270.4375 126.835938 270.601562 127.207031 270.667969 C 137.238281 272.429688 147.359375 272.875 157.515625 272.515625 C 159.589844 272.441406 161.652344 271.960938 164.128906 271.667969 C 172.609375 271.179688 180.789062 269.167969 188.8125 266.546875 C 210.058594 259.601562 227.910156 247.4375 242.957031 231.019531 C 243.753906 230.152344 244.882812 229.175781 243.652344 227.902344 C 242.339844 226.546875 241.378906 227.605469 240.40625 228.546875 C 236.320312 232.515625 232.367188 236.644531 228.078125 240.382812 C 214.257812 252.425781 198.390625 260.703125 180.621094 265.1875 C 174.597656 266.707031 168.4375 267.675781 161.933594 268.894531 C 159.757812 269.042969 157.566406 269.402344 155.398438 269.304688 C 147.347656 268.9375 139.304688 268.421875 130.921875 267.816406 C 129.210938 267.550781 127.496094 267.285156 125.578125 266.800781 C 125.183594 266.734375 124.785156 266.671875 124.066406 266.460938 C 120.679688 265.589844 117.292969 264.71875 113.691406 263.613281 M 86.386719 109.488281 C 66.300781 145.785156 46.214844 182.082031 26.007812 218.597656 C 34.1875 218.597656 42.03125 218.554688 49.878906 218.632812 C 51.441406 218.648438 51.976562 217.714844 52.574219 216.632812 C 67.503906 189.683594 82.429688 162.730469 97.367188 135.78125 C 99.675781 131.613281 102.007812 127.460938 104.375 123.21875 C 104.683594 123.542969 104.878906 123.683594 104.984375 123.871094 C 109.753906 132.367188 114.511719 140.867188 119.273438 149.367188 C 131.8125 171.742188 144.359375 194.113281 156.867188 216.503906 C 157.699219 217.992188 158.652344 218.660156 160.449219 218.628906 C 166.925781 218.511719 173.402344 218.585938 179.878906 218.585938 C 180.75 218.585938 181.617188 218.585938 182.890625 218.585938 C 156.625 171.242188 130.605469 124.339844 104.347656 77.007812 C 98.234375 88.050781 92.386719 98.621094 86.386719 109.488281 M 109.070312 162.632812 C 113.480469 162.625 117.890625 162.683594 122.296875 162.535156 C 122.980469 162.515625 123.628906 161.546875 124.296875 161.019531 C 123.667969 160.398438 123.046875 159.246094 122.40625 159.234375 C 113.59375 159.09375 104.773438 159.074219 95.957031 159.105469 C 93.839844 159.113281 92.621094 160.527344 91.558594 162.628906 C 97.433594 162.628906 103.023438 162.628906 109.070312 162.632812 M 104.511719 149.617188 C 107.027344 149.585938 109.546875 149.652344 112.046875 149.464844 C 112.652344 149.417969 113.71875 148.433594 113.648438 148.054688 C 113.515625 147.355469 112.71875 146.269531 112.164062 146.246094 C 108.136719 146.085938 104.097656 146.089844 100.066406 146.21875 C 99.523438 146.234375 98.519531 147.347656 98.605469 147.789062 C 98.734375 148.472656 99.53125 149.382812 100.195312 149.535156 C 101.425781 149.8125 102.765625 149.613281 104.511719 149.617188 M 30.070312 168.632812 C 30.714844 168.082031 31.910156 167.53125 31.90625 166.988281 C 31.894531 165.5 31.378906 164.011719 31.0625 162.523438 C 30.320312 162.785156 28.921875 163.09375 28.9375 163.308594 C 29.054688 165.039062 29.433594 166.753906 30.070312 168.632812 M 270.0625 168.296875 C 271.582031 167.5625 272.816406 164.019531 271.75 162.980469 C 271.292969 162.535156 269.953125 162.386719 269.425781 162.730469 C 267.925781 163.714844 268.1875 167.050781 270.0625 168.296875 Z M 270.0625 168.296875 "/>
<path style=" stroke:none;fill-rule:nonzero;fill:rgb(98.823529%,98.823529%,98.431373%);fill-opacity:1;" d="M 86.460938 109.335938 C 92.386719 98.621094 98.234375 88.050781 104.347656 77.007812 C 130.605469 124.339844 156.625 171.242188 182.890625 218.585938 C 181.617188 218.585938 180.75 218.585938 179.878906 218.585938 C 173.402344 218.585938 166.925781 218.511719 160.449219 218.628906 C 158.652344 218.660156 157.699219 217.992188 156.867188 216.503906 C 144.359375 194.113281 131.8125 171.742188 119.273438 149.367188 C 114.511719 140.867188 109.753906 132.367188 104.984375 123.871094 C 104.878906 123.683594 104.683594 123.542969 104.375 123.21875 C 102.007812 127.460938 99.675781 131.613281 97.367188 135.78125 C 82.429688 162.730469 67.503906 189.683594 52.574219 216.632812 C 51.976562 217.714844 51.441406 218.648438 49.878906 218.632812 C 42.03125 218.554688 34.1875 218.597656 26.007812 218.597656 C 46.214844 182.082031 66.300781 145.785156 86.460938 109.335938 Z M 86.460938 109.335938 "/>
<path style=" stroke:none;fill-rule:nonzero;fill:rgb(98.823529%,98.823529%,98.431373%);fill-opacity:1;" d="M 150.980469 87.34375 C 151.023438 86.519531 151.066406 85.691406 151.105469 84.539062 C 151.066406 83.582031 151.027344 82.949219 150.992188 82.316406 C 151.019531 80.132812 152.109375 79.730469 154.210938 79.75 C 169.066406 79.886719 183.925781 79.789062 198.78125 79.878906 C 213.421875 79.972656 224.109375 86.867188 230.855469 99.617188 C 240.851562 118.511719 232.125 142.480469 213.183594 150.105469 C 212.765625 150.273438 212.371094 150.496094 211.742188 150.804688 C 225.402344 173.277344 239.011719 195.671875 252.808594 218.375 C 251.886719 218.460938 251.257812 218.570312 250.632812 218.574219 C 243.394531 218.589844 236.15625 218.535156 228.917969 218.628906 C 227.300781 218.652344 226.441406 218.011719 225.648438 216.730469 C 210.941406 192.976562 196.210938 169.238281 181.46875 145.507812 C 178.503906 140.738281 175.464844 136.015625 172.28125 130.988281 C 173.25 130.9375 173.960938 130.871094 174.667969 130.871094 C 182.746094 130.863281 190.820312 130.886719 198.898438 130.855469 C 206.847656 130.824219 212.992188 125.457031 213.59375 118.074219 C 214.265625 109.835938 209.160156 103.207031 200.898438 101.671875 C 199.628906 101.484375 198.59375 101.511719 197.554688 101.542969 C 197.066406 101.574219 196.582031 101.609375 195.804688 101.460938 C 194.671875 101.367188 193.828125 101.457031 192.980469 101.542969 C 185.199219 101.574219 177.414062 101.605469 169.351562 101.476562 C 168.652344 101.421875 168.234375 101.53125 167.816406 101.640625 C 166.554688 101.96875 166.351562 102.800781 166.351562 104.035156 C 166.402344 126.472656 166.398438 148.914062 166.410156 171.351562 C 166.410156 173.007812 166.402344 174.617188 163.84375 173.6875 C 163.503906 173.242188 163.285156 173.046875 163.003906 172.738281 C 162.894531 172.554688 162.847656 172.480469 162.800781 172.410156 C 162.820312 171.472656 162.835938 170.535156 162.851562 169.234375 C 162.816406 168.527344 162.789062 168.179688 162.757812 167.835938 C 162.78125 164.621094 162.808594 161.40625 162.828125 157.773438 C 162.828125 150.367188 162.839844 143.382812 162.824219 136.394531 C 162.804688 127.058594 162.761719 117.722656 162.726562 108.386719 C 162.773438 107.40625 162.839844 106.429688 162.863281 105.453125 C 162.945312 102.003906 162.941406 102.003906 159.292969 101.632812 C 157.847656 101.53125 156.660156 101.636719 155.472656 101.746094 C 155.183594 102.375 154.644531 103.003906 154.640625 103.636719 C 154.609375 113.769531 154.648438 123.898438 154.667969 134.375 C 154.707031 136 154.742188 137.277344 154.78125 138.554688 C 154.746094 140.269531 154.714844 141.980469 154.679688 144.058594 C 154.710938 147.34375 154.742188 150.265625 154.777344 153.1875 C 154.742188 153.539062 154.707031 153.894531 154.675781 154.558594 C 154.703125 155.066406 154.726562 155.261719 154.75 155.457031 C 154.078125 156 153.402344 156.539062 152.730469 157.078125 C 152.25 156.410156 151.472656 155.792969 151.347656 155.0625 C 151.078125 153.523438 151.148438 151.925781 151.066406 149.96875 C 151.074219 130.730469 151.097656 111.878906 151.109375 93.03125 C 151.109375 91.136719 151.023438 89.238281 150.980469 87.34375 Z M 150.980469 87.34375 "/>
<path style=" stroke:none;fill-rule:nonzero;fill:rgb(89.019608%,89.019608%,89.019608%);fill-opacity:1;" d="M 76.34375 52.523438 C 89.695312 42.535156 104.339844 35.269531 120.621094 31.4375 C 152.664062 23.894531 183.082031 28.042969 211.796875 44.203125 C 214.378906 45.65625 216.792969 47.402344 219.191406 49.164062 C 218.445312 50.070312 217.792969 50.824219 217.144531 51.578125 C 208.585938 46.125 199.667969 41.371094 190.027344 38.101562 C 164.230469 29.351562 138.347656 29.121094 112.40625 37.472656 C 102.5625 40.640625 93.359375 45.152344 84.769531 50.894531 C 82.019531 52.730469 79.371094 54.714844 76.367188 56.644531 C 75.945312 56.242188 75.648438 55.503906 75.730469 55.457031 C 77.128906 54.699219 76.34375 53.535156 76.34375 52.523438 Z M 76.34375 52.523438 "/>
<path style=" stroke:none;fill-rule:nonzero;fill:rgb(37.254902%,36.078431%,38.039216%);fill-opacity:1;" d="M 162.339844 268.894531 C 168.4375 267.675781 174.597656 266.707031 180.621094 265.1875 C 198.390625 260.703125 214.257812 252.425781 228.078125 240.382812 C 232.367188 236.644531 236.320312 232.515625 240.40625 228.546875 C 241.378906 227.605469 242.339844 226.546875 243.652344 227.902344 C 244.882812 229.175781 243.753906 230.152344 242.957031 231.019531 C 227.910156 247.4375 210.058594 259.601562 188.8125 266.546875 C 180.789062 269.167969 172.609375 271.179688 163.859375 271.527344 C 163.171875 270.554688 162.757812 269.726562 162.339844 268.894531 Z M 162.339844 268.894531 "/>
<path style=" stroke:none;fill-rule:nonzero;fill:rgb(27.45098%,27.45098%,27.843137%);fill-opacity:1;" d="M 112.472656 266.636719 C 107.992188 264.992188 103.390625 263.613281 99.058594 261.648438 C 88.136719 256.691406 78.066406 250.34375 69.152344 242.261719 C 65.945312 239.351562 62.847656 236.320312 59.761719 233.277344 C 59.023438 232.546875 58.367188 231.625 58 230.664062 C 57.757812 230.03125 58.097656 229.171875 58.175781 228.414062 C 58.921875 228.578125 59.90625 228.492188 60.382812 228.945312 C 63.308594 231.722656 66.027344 234.722656 68.988281 237.460938 C 78.714844 246.453125 89.558594 253.78125 101.78125 258.976562 C 104.921875 260.316406 108.113281 261.539062 111.4375 263.054688 C 111.984375 265.074219 113.015625 264.164062 113.902344 263.847656 C 117.292969 264.71875 120.679688 265.589844 124.25 266.6875 C 124.882812 266.945312 125.335938 266.984375 125.785156 267.019531 C 127.496094 267.285156 129.210938 267.550781 131.0625 268.070312 C 130.261719 268.671875 129.320312 269.023438 128.375 269.359375 C 127.507812 269.664062 126.632812 269.949219 125.761719 270.246094 C 122.222656 269.355469 118.679688 268.464844 114.945312 267.386719 C 114.289062 265.804688 113.398438 266.144531 112.472656 266.636719 Z M 112.472656 266.636719 "/>
<path style=" stroke:none;fill-rule:nonzero;fill:rgb(96.862745%,96.862745%,96.862745%);fill-opacity:1;" d="M 136.667969 43.753906 C 137.390625 43.648438 138.117188 43.449219 138.839844 43.453125 C 143.230469 43.46875 146.316406 41.6875 147.941406 37.421875 C 148.257812 36.585938 149.566406 36.125 150.414062 35.488281 C 150.980469 36.621094 151.542969 37.753906 152.105469 38.886719 C 151.96875 38.921875 151.832031 38.960938 151.695312 39 C 152.699219 39.625 154.039062 40.023438 154.636719 40.921875 C 156.136719 43.160156 158.222656 43.4375 160.582031 43.476562 C 161.933594 43.496094 163.285156 43.800781 164.800781 44.21875 C 164.996094 45.324219 165.03125 46.183594 165.0625 47.042969 C 162.59375 47.394531 160.082031 47.5625 157.671875 48.148438 C 155.242188 48.738281 153.636719 50.367188 153.164062 52.980469 C 152.839844 54.769531 152.347656 56.527344 150.148438 57.5 C 149.667969 56.503906 149.125 55.628906 148.800781 54.679688 C 147.109375 49.667969 144.101562 46.648438 138.371094 47.539062 C 137.953125 47.605469 137.492188 47.421875 136.890625 47.035156 C 136.710938 45.730469 136.6875 44.742188 136.667969 43.753906 Z M 136.667969 43.753906 "/>
<path style=" stroke:none;fill-rule:nonzero;fill:rgb(96.862745%,96.862745%,96.862745%);fill-opacity:1;" d="M 164.875 256.332031 C 162.929688 256.671875 160.988281 257.042969 159.035156 257.347656 C 157.5625 257.574219 156.492188 258.292969 155.226562 259.121094 C 153.25 260.417969 152.097656 261.871094 151.15625 263.84375 C 150.957031 264.253906 149.8125 264.667969 149.488281 264.464844 C 148.796875 264.035156 148.0625 263.273438 147.867188 262.515625 C 147.144531 259.675781 145.472656 257.855469 142.554688 257.367188 C 140.457031 257.019531 138.332031 256.859375 136.011719 256.402344 C 136.125 255.257812 136.449219 254.316406 136.769531 253.378906 C 138.269531 253.160156 139.765625 252.839844 141.273438 252.738281 C 144.78125 252.503906 146.222656 250.570312 147.328125 246.980469 C 147.804688 245.433594 148.730469 244.023438 149.453125 242.554688 C 149.742188 242.613281 150.03125 242.675781 150.320312 242.738281 C 150.707031 243.671875 151.070312 244.617188 151.488281 245.539062 C 151.957031 246.574219 152.511719 247.574219 152.96875 248.617188 C 154.347656 251.777344 156.464844 253.527344 160.183594 252.976562 C 161.621094 252.761719 163.15625 253.214844 164.867188 253.53125 C 165.015625 254.578125 164.945312 255.453125 164.875 256.332031 Z M 164.875 256.332031 "/>
<path style=" stroke:none;fill-rule:nonzero;fill:rgb(58.431373%,58.039216%,59.215686%);fill-opacity:1;" d="M 28.941406 150.074219 C 27.664062 148.046875 26.386719 146.023438 24.921875 143.691406 C 29.457031 142.605469 28.53125 139.054688 28.847656 135.964844 C 30.179688 122.910156 33.371094 110.351562 39.398438 98.46875 C 40.335938 98.949219 40.984375 99.457031 41.632812 99.964844 C 40.941406 102.019531 40.324219 104.105469 39.546875 106.128906 C 35.640625 116.246094 33.238281 126.714844 32.101562 137.488281 C 31.851562 139.878906 31.945312 141.929688 34.550781 143.1875 C 36.125 143.949219 35.996094 145.265625 34.792969 146.546875 C 33.738281 147.675781 32.832031 148.945312 31.730469 150.285156 C 30.714844 150.300781 29.828125 150.1875 28.941406 150.074219 Z M 28.941406 150.074219 "/>
<path style=" stroke:none;fill-rule:nonzero;fill:rgb(62.745098%,62.352941%,63.137255%);fill-opacity:1;" d="M 261.242188 98.285156 C 265.253906 106.5625 268.222656 115.207031 269.878906 124.246094 C 270.796875 129.242188 271.191406 134.328125 271.878906 139.367188 C 272.007812 140.292969 272.148438 141.488281 272.753906 142.03125 C 276.863281 145.703125 275.191406 146.355469 272.496094 148.941406 C 272.230469 149.199219 271.863281 149.351562 271.226562 149.601562 C 270.25 149.769531 269.59375 149.894531 268.933594 150.019531 C 267.890625 148.617188 266.878906 147.191406 265.796875 145.820312 C 264.878906 144.660156 265 143.683594 266.292969 143.023438 C 268.226562 142.03125 268.597656 140.425781 268.449219 138.445312 C 267.632812 127.359375 265.027344 116.691406 260.9375 106.375 C 260.070312 104.1875 259.128906 102.027344 258.328125 99.523438 C 259.371094 98.890625 260.304688 98.589844 261.242188 98.285156 Z M 261.242188 98.285156 "/>
<path style=" stroke:none;fill-rule:nonzero;fill:rgb(87.45098%,87.058824%,87.058824%);fill-opacity:1;" d="M 41.777344 99.871094 C 40.984375 99.457031 40.335938 98.949219 39.539062 98.386719 C 42.648438 92.4375 45.550781 86.304688 49.246094 80.691406 C 56.453125 69.75 65.578125 60.507812 76.195312 52.566406 C 76.34375 53.535156 77.128906 54.699219 75.730469 55.457031 C 75.648438 55.503906 75.945312 56.242188 76.21875 56.683594 C 70.382812 62.617188 64.148438 68.304688 58.460938 74.492188 C 52.53125 80.945312 48.058594 88.496094 43.960938 96.242188 C 43.324219 97.441406 42.601562 98.601562 41.777344 99.871094 Z M 41.777344 99.871094 "/>
<path style=" stroke:none;fill-rule:nonzero;fill:rgb(29.803922%,29.803922%,30.980392%);fill-opacity:1;" d="M 114.78125 251.996094 C 105.449219 249.003906 96.769531 244.660156 88.816406 238.984375 C 84.136719 235.644531 79.785156 231.847656 75.324219 228.210938 C 74.511719 227.546875 73.722656 226.75 73.222656 225.847656 C 72.953125 225.355469 73.09375 224.28125 73.476562 223.894531 C 73.820312 223.546875 74.972656 223.484375 75.382812 223.796875 C 77.367188 225.3125 79.238281 226.976562 81.121094 228.625 C 90.589844 236.917969 101.191406 243.304688 113.015625 247.652344 C 114.011719 248.015625 114.980469 248.460938 116.054688 249.148438 C 115.695312 250.285156 115.238281 251.140625 114.78125 251.996094 Z M 114.78125 251.996094 "/>
<path style=" stroke:none;fill-rule:nonzero;fill:rgb(49.803922%,48.627451%,49.803922%);fill-opacity:1;" d="M 226.628906 73.988281 C 227.675781 74.960938 228.875 75.816406 229.742188 76.929688 C 233.503906 81.738281 237.421875 86.449219 240.804688 91.515625 C 245.746094 98.910156 249.644531 106.882812 252.351562 115.523438 C 251.339844 116.179688 250.480469 116.640625 249.625 117.105469 C 249.175781 115.992188 248.730469 114.878906 248.421875 113.582031 C 248.886719 113.058594 249.207031 112.722656 249.527344 112.386719 C 248.828125 112.117188 248.132812 111.851562 247.4375 111.582031 C 244.414062 105.796875 241.871094 99.679688 238.238281 94.304688 C 233.925781 87.925781 228.671875 82.1875 223.921875 76.015625 C 224.886719 75.238281 225.757812 74.613281 226.628906 73.988281 Z M 226.628906 73.988281 "/>
<path style=" stroke:none;fill-rule:nonzero;fill:rgb(10.588235%,10.588235%,10.588235%);fill-opacity:1;" d="M 162.558594 108.390625 C 162.761719 117.722656 162.804688 127.058594 162.824219 136.394531 C 162.839844 143.382812 162.828125 150.367188 162.78125 157.5625 C 161.039062 157.96875 160.355469 157.191406 160.507812 155.523438 C 160.5625 154.921875 160.691406 154.183594 160.421875 153.722656 C 158.042969 149.628906 159.265625 145.195312 159.179688 140.90625 C 159.054688 134.75 159.144531 128.589844 159.144531 122.433594 C 159.144531 119.660156 158.933594 116.863281 159.214844 114.121094 C 159.445312 111.882812 159.828125 109.457031 162.558594 108.390625 Z M 162.558594 108.390625 "/>
<path style=" stroke:none;fill-rule:nonzero;fill:rgb(43.921569%,41.960784%,43.921569%);fill-opacity:1;" d="M 187.890625 247.757812 C 192.722656 245.378906 197.648438 243.167969 202.367188 240.578125 C 209.585938 236.617188 216.191406 231.742188 222.253906 226.152344 C 222.980469 225.484375 223.6875 224.714844 224.550781 224.304688 C 225.242188 223.976562 226.15625 224.125 226.96875 224.058594 C 226.894531 224.945312 227.160156 226.148438 226.683594 226.664062 C 224.878906 228.613281 222.90625 230.417969 220.871094 232.128906 C 211.117188 240.328125 200.332031 246.765625 188.132812 250.882812 C 187.941406 249.734375 187.914062 248.746094 187.890625 247.757812 Z M 187.890625 247.757812 "/>
<path style=" stroke:none;fill-rule:nonzero;fill:rgb(47.45098%,45.882353%,47.45098%);fill-opacity:1;" d="M 249.632812 117.28125 C 250.480469 116.640625 251.339844 116.179688 252.367188 115.699219 C 255.5 123.074219 257.257812 130.757812 257.90625 138.683594 C 258.183594 142.09375 258.234375 145.523438 258.3125 148.949219 C 258.332031 149.839844 258.261719 150.855469 257.847656 151.597656 C 257.527344 152.171875 256.605469 152.703125 255.957031 152.699219 C 255.535156 152.695312 254.820312 151.726562 254.753906 151.132812 C 254.5 148.871094 254.34375 146.582031 254.351562 144.304688 C 254.386719 135.066406 252.550781 126.171875 249.632812 117.28125 Z M 249.632812 117.28125 "/>
<path style=" stroke:none;fill-rule:nonzero;fill:rgb(92.54902%,92.54902%,92.54902%);fill-opacity:1;" d="M 108.839844 162.632812 C 103.023438 162.628906 97.433594 162.628906 91.558594 162.628906 C 92.621094 160.527344 93.839844 159.113281 95.957031 159.105469 C 104.773438 159.074219 113.59375 159.09375 122.40625 159.234375 C 123.046875 159.246094 123.667969 160.398438 124.296875 161.019531 C 123.628906 161.546875 122.980469 162.515625 122.296875 162.535156 C 117.890625 162.683594 113.480469 162.625 108.839844 162.632812 Z M 108.839844 162.632812 "/>
<path style=" stroke:none;fill-rule:nonzero;fill:rgb(49.803922%,48.627451%,49.803922%);fill-opacity:1;" d="M 86.050781 67.867188 C 79.226562 73.476562 72.84375 79.523438 67.421875 86.53125 C 66.535156 87.671875 65.660156 88.8125 64.503906 89.980469 C 63.335938 89.570312 62.445312 89.136719 61.550781 88.703125 C 65.664062 83.726562 69.53125 78.519531 73.972656 73.851562 C 77.519531 70.121094 81.757812 67.050781 85.851562 63.796875 C 86.027344 65.226562 86.039062 66.546875 86.050781 67.867188 Z M 86.050781 67.867188 "/>
<path style=" stroke:none;fill-rule:nonzero;fill:rgb(26.27451%,25.882353%,26.666667%);fill-opacity:1;" d="M 125.941406 270.28125 C 126.632812 269.949219 127.507812 269.664062 128.375 269.359375 C 129.320312 269.023438 130.261719 268.671875 131.230469 268.144531 C 139.304688 268.421875 147.347656 268.9375 155.398438 269.304688 C 157.566406 269.402344 159.757812 269.042969 162.136719 268.894531 C 162.757812 269.726562 163.171875 270.554688 163.65625 271.527344 C 161.652344 271.960938 159.589844 272.441406 157.515625 272.515625 C 147.359375 272.875 137.238281 272.429688 127.207031 270.667969 C 126.835938 270.601562 126.484375 270.4375 125.941406 270.28125 Z M 125.941406 270.28125 "/>
<path style=" stroke:none;fill-rule:nonzero;fill:rgb(34.901961%,34.509804%,36.078431%);fill-opacity:1;" d="M 45.207031 126.539062 C 45.207031 126.539062 45.175781 126.386719 45.359375 126.289062 C 46.664062 125.59375 47.785156 124.992188 48.90625 124.390625 C 46.335938 135.238281 45.414062 146.242188 45.753906 157.375 C 45.792969 158.746094 46.214844 160.796875 44.210938 160.816406 C 42.289062 160.839844 42.5 158.820312 42.550781 157.425781 C 42.847656 149.851562 43.203125 142.277344 43.820312 134.550781 C 44.503906 133.871094 45.007812 133.378906 45.289062 132.789062 C 45.925781 131.46875 46.449219 130.097656 47.042969 128.695312 C 46.53125 128.097656 45.871094 127.316406 45.207031 126.539062 Z M 45.207031 126.539062 "/>
<path style=" stroke:none;fill-rule:nonzero;fill:rgb(58.431373%,58.039216%,59.215686%);fill-opacity:1;" d="M 198.421875 57.507812 C 190.289062 53.867188 182.101562 50.402344 173.292969 48.703125 C 172.625 48.574219 171.960938 48.433594 171.160156 47.988281 C 171.03125 46.730469 171.03125 45.78125 171.035156 44.832031 C 177.195312 45.40625 182.972656 47.378906 188.660156 49.683594 C 191.878906 50.984375 195.09375 52.296875 198.394531 53.890625 C 198.460938 55.285156 198.441406 56.398438 198.421875 57.507812 Z M 198.421875 57.507812 "/>
<path style=" stroke:none;fill-rule:nonzero;fill:rgb(40.392157%,39.607843%,41.568627%);fill-opacity:1;" d="M 61.429688 88.777344 C 62.445312 89.136719 63.335938 89.570312 64.378906 90.070312 C 60.964844 96.746094 57.398438 103.355469 53.828125 109.96875 C 53.542969 110.5 53.25 111.035156 52.742188 111.527344 C 51.460938 111.679688 50.394531 111.863281 49.328125 112.050781 C 52.097656 103.6875 56.246094 96.03125 61.429688 88.777344 Z M 61.429688 88.777344 "/>
<path style=" stroke:none;fill-rule:nonzero;fill:rgb(72.156863%,71.764706%,72.156863%);fill-opacity:1;" d="M 217.21875 51.699219 C 217.792969 50.824219 218.445312 50.070312 219.300781 49.292969 C 223.203125 52.136719 226.960938 54.925781 230.574219 57.894531 C 233.183594 60.035156 235.605469 62.40625 238.046875 64.90625 C 237.40625 66 236.828125 66.855469 236.25 67.710938 C 229.929688 62.414062 223.609375 57.117188 217.21875 51.699219 Z M 217.21875 51.699219 "/>
<path style=" stroke:none;fill-rule:nonzero;fill:rgb(40.392157%,39.607843%,41.568627%);fill-opacity:1;" d="M 187.714844 247.777344 C 187.914062 248.746094 187.941406 249.734375 187.960938 250.894531 C 180.664062 253.976562 173.136719 255.898438 165.082031 256.398438 C 164.945312 255.453125 165.015625 254.578125 165.058594 253.550781 C 172.535156 251.53125 180.039062 249.664062 187.714844 247.777344 Z M 187.714844 247.777344 "/>
<path style=" stroke:none;fill-rule:nonzero;fill:rgb(51.764706%,50.588235%,51.764706%);fill-opacity:1;" d="M 86.199219 67.800781 C 86.039062 66.546875 86.027344 65.226562 85.996094 63.75 C 86.183594 63.421875 86.382812 63.25 86.8125 63.183594 C 87.671875 63.179688 88.300781 63.070312 88.925781 62.960938 C 88.734375 62.640625 88.542969 62.316406 88.347656 61.996094 C 88.832031 61.59375 89.3125 61.195312 89.945312 60.921875 C 90.230469 61.378906 90.367188 61.703125 90.5 62.027344 C 90.667969 61.933594 90.832031 61.839844 90.996094 61.746094 C 90.742188 61.375 90.488281 61.007812 90.234375 60.640625 C 95.257812 57.804688 100.277344 54.96875 105.46875 52.316406 C 105.808594 53.515625 105.984375 54.53125 106.160156 55.550781 C 99.554688 59.609375 92.949219 63.671875 86.199219 67.800781 Z M 86.199219 67.800781 "/>
<path style=" stroke:none;fill-rule:nonzero;fill:rgb(65.098039%,64.705882%,65.098039%);fill-opacity:1;" d="M 261.210938 98.125 C 260.304688 98.589844 259.371094 98.890625 258.339844 99.363281 C 255.488281 94.789062 252.746094 90.039062 249.960938 85.3125 C 249.117188 83.882812 248.160156 82.519531 247.324219 80.808594 C 247.515625 79.804688 247.636719 79.113281 247.75 78.460938 C 248.324219 78.433594 248.890625 78.410156 249.460938 78.382812 C 249.460938 78.382812 249.464844 78.433594 249.402344 78.617188 C 249.410156 79.128906 249.488281 79.457031 249.5625 79.789062 C 249.796875 79.660156 250.027344 79.535156 250.257812 79.40625 C 253.898438 85.589844 257.539062 91.777344 261.210938 98.125 Z M 261.210938 98.125 "/>
<path style=" stroke:none;fill-rule:nonzero;fill:rgb(51.764706%,50.588235%,51.764706%);fill-opacity:1;" d="M 226.554688 73.847656 C 225.757812 74.613281 224.886719 75.238281 223.867188 75.878906 C 219.882812 72.671875 216.050781 69.449219 212.265625 66 C 212.726562 63.789062 211.398438 64.074219 210.21875 64.167969 C 210.21875 64.167969 210.332031 64.167969 210.324219 63.980469 C 210.730469 63.078125 211.144531 62.359375 211.558594 61.640625 C 214.699219 63.976562 217.84375 66.3125 220.929688 68.851562 C 220.902344 69.429688 220.929688 69.796875 220.960938 70.164062 C 221.296875 69.988281 221.632812 69.8125 221.96875 69.632812 C 223.472656 70.992188 224.976562 72.347656 226.554688 73.847656 Z M 226.554688 73.847656 "/>
<path style=" stroke:none;fill-rule:nonzero;fill:rgb(68.235294%,67.843137%,68.235294%);fill-opacity:1;" d="M 249.4375 78.242188 C 248.890625 78.410156 248.324219 78.433594 247.75 78.460938 C 247.636719 79.113281 247.515625 79.804688 247.316406 80.660156 C 243.609375 76.535156 239.980469 72.246094 236.300781 67.835938 C 236.828125 66.855469 237.40625 66 238.105469 65.046875 C 241.960938 69.332031 245.6875 73.714844 249.4375 78.242188 Z M 249.4375 78.242188 "/>
<path style=" stroke:none;fill-rule:nonzero;fill:rgb(10.588235%,10.588235%,10.588235%);fill-opacity:1;" d="M 150.792969 87.382812 C 151.023438 89.238281 151.109375 91.136719 151.109375 93.03125 C 151.097656 111.878906 151.074219 130.730469 151.003906 149.792969 C 150.636719 149.425781 150.039062 148.847656 150.039062 148.269531 C 150.046875 130.855469 150.117188 113.445312 150.160156 96.03125 C 150.164062 93.832031 150.003906 91.632812 150.03125 89.4375 C 150.039062 88.761719 150.402344 88.089844 150.792969 87.382812 Z M 150.792969 87.382812 "/>
<path style=" stroke:none;fill-rule:nonzero;fill:rgb(87.45098%,87.058824%,87.058824%);fill-opacity:1;" d="M 136.46875 43.769531 C 136.6875 44.742188 136.710938 45.730469 136.730469 46.933594 C 131.671875 48.039062 126.613281 48.929688 121.382812 49.667969 C 120.742188 48.695312 120.269531 47.882812 119.796875 47.070312 C 125.289062 45.976562 130.777344 44.882812 136.46875 43.769531 Z M 136.46875 43.769531 "/>
<path style=" stroke:none;fill-rule:nonzero;fill:rgb(92.54902%,92.54902%,92.54902%);fill-opacity:1;" d="M 104.285156 149.617188 C 102.765625 149.613281 101.425781 149.8125 100.195312 149.535156 C 99.53125 149.382812 98.734375 148.472656 98.605469 147.789062 C 98.519531 147.347656 99.523438 146.234375 100.066406 146.21875 C 104.097656 146.089844 108.136719 146.085938 112.164062 146.246094 C 112.71875 146.269531 113.515625 147.355469 113.648438 148.054688 C 113.71875 148.433594 112.652344 149.417969 112.046875 149.464844 C 109.546875 149.652344 107.027344 149.585938 104.285156 149.617188 Z M 104.285156 149.617188 "/>
<path style=" stroke:none;fill-rule:nonzero;fill:rgb(54.901961%,53.72549%,54.901961%);fill-opacity:1;" d="M 211.480469 61.496094 C 211.144531 62.359375 210.730469 63.078125 210.269531 63.992188 C 209.300781 63.761719 208.339844 63.394531 207.460938 62.890625 C 204.492188 61.191406 201.554688 59.441406 198.511719 57.605469 C 198.441406 56.398438 198.460938 55.285156 198.511719 53.996094 C 202.828125 56.328125 207.113281 58.839844 211.480469 61.496094 Z M 211.480469 61.496094 "/>
<path style=" stroke:none;fill-rule:nonzero;fill:rgb(37.254902%,36.078431%,38.039216%);fill-opacity:1;" d="M 49.253906 112.191406 C 50.394531 111.863281 51.460938 111.679688 52.625 111.644531 C 51.472656 115.878906 50.222656 119.960938 48.9375 124.214844 C 47.785156 124.992188 46.664062 125.59375 45.375 126.214844 C 46.53125 121.597656 47.851562 116.964844 49.253906 112.191406 Z M 49.253906 112.191406 "/>
<path style=" stroke:none;fill-rule:nonzero;fill:rgb(95.294118%,95.294118%,95.294118%);fill-opacity:1;" d="M 28.875 150.222656 C 29.828125 150.1875 30.714844 150.300781 31.765625 150.460938 C 32.972656 151.390625 34.015625 152.277344 35.070312 153.171875 C 34.402344 154.417969 34 155.300781 33.484375 156.109375 C 32.027344 158.394531 29.773438 158.574219 27.984375 156.578125 C 27.628906 156.183594 27.324219 155.742188 27 155.320312 C 25.433594 153.292969 25.523438 152.742188 27.601562 151.34375 C 28.03125 151.054688 28.410156 150.699219 28.875 150.222656 Z M 28.875 150.222656 "/>
<path style=" stroke:none;fill-rule:nonzero;fill:rgb(95.294118%,95.294118%,95.294118%);fill-opacity:1;" d="M 268.851562 150.152344 C 269.59375 149.894531 270.25 149.769531 271.070312 149.59375 C 272.203125 150.773438 273.179688 152 274.1875 153.269531 C 272.855469 154.988281 272.972656 158.566406 269.820312 157.773438 C 267.953125 157.304688 266.523438 155.105469 264.824219 153.625 C 266.492188 152.210938 267.628906 151.246094 268.851562 150.152344 Z M 268.851562 150.152344 "/>
<path style=" stroke:none;fill-rule:nonzero;fill:rgb(37.254902%,36.078431%,38.039216%);fill-opacity:1;" d="M 114.933594 252.070312 C 115.238281 251.140625 115.695312 250.285156 116.171875 249.253906 C 120.039062 250.121094 123.890625 251.167969 127.890625 252.503906 C 128.023438 253.644531 128 254.492188 127.980469 255.339844 C 123.679688 254.273438 119.382812 253.210938 114.933594 252.070312 Z M 114.933594 252.070312 "/>
<path style=" stroke:none;fill-rule:nonzero;fill:rgb(65.098039%,64.705882%,65.098039%);fill-opacity:1;" d="M 119.617188 47.050781 C 120.269531 47.882812 120.742188 48.695312 121.203125 49.679688 C 118.417969 50.820312 115.648438 51.796875 112.695312 52.566406 C 112.429688 51.402344 112.339844 50.4375 112.253906 49.476562 C 114.648438 48.660156 117.042969 47.84375 119.617188 47.050781 Z M 119.617188 47.050781 "/>
<path style=" stroke:none;fill-rule:nonzero;fill:rgb(40.392157%,39.607843%,41.568627%);fill-opacity:1;" d="M 128.121094 255.4375 C 128 254.492188 128.023438 253.644531 128.039062 252.585938 C 130.808594 252.703125 133.585938 253.03125 136.566406 253.371094 C 136.449219 254.316406 136.125 255.257812 135.828125 256.363281 C 133.320312 256.203125 130.792969 255.871094 128.121094 255.4375 Z M 128.121094 255.4375 "/>
<path style=" stroke:none;fill-rule:nonzero;fill:rgb(58.431373%,58.039216%,59.215686%);fill-opacity:1;" d="M 112.085938 49.496094 C 112.339844 50.4375 112.429688 51.402344 112.519531 52.605469 C 110.511719 53.710938 108.496094 54.574219 106.320312 55.496094 C 105.984375 54.53125 105.808594 53.515625 105.632812 52.304688 C 107.726562 51.246094 109.820312 50.378906 112.085938 49.496094 Z M 112.085938 49.496094 "/>
<path style=" stroke:none;fill-rule:nonzero;fill:rgb(65.098039%,64.705882%,65.098039%);fill-opacity:1;" d="M 170.835938 44.796875 C 171.03125 45.78125 171.03125 46.730469 171.023438 47.882812 C 169.128906 47.820312 167.242188 47.554688 165.207031 47.167969 C 165.03125 46.183594 164.996094 45.324219 164.980469 44.277344 C 166.878906 44.316406 168.761719 44.535156 170.835938 44.796875 Z M 170.835938 44.796875 "/>
<path style=" stroke:none;fill-rule:nonzero;fill:rgb(58.431373%,58.039216%,59.215686%);fill-opacity:1;" d="M 29.902344 168.550781 C 29.433594 166.753906 29.054688 165.039062 28.9375 163.308594 C 28.921875 163.09375 30.320312 162.785156 31.0625 162.523438 C 31.378906 164.011719 31.894531 165.5 31.90625 166.988281 C 31.910156 167.53125 30.714844 168.082031 29.902344 168.550781 Z M 29.902344 168.550781 "/>
<path style=" stroke:none;fill-rule:nonzero;fill:rgb(72.156863%,71.764706%,72.156863%);fill-opacity:1;" d="M 269.875 168.265625 C 268.1875 167.050781 267.925781 163.714844 269.425781 162.730469 C 269.953125 162.386719 271.292969 162.535156 271.75 162.980469 C 272.816406 164.019531 271.582031 167.5625 269.875 168.265625 Z M 269.875 168.265625 "/>
<path style=" stroke:none;fill-rule:nonzero;fill:rgb(37.254902%,36.078431%,38.039216%);fill-opacity:1;" d="M 45.09375 126.679688 C 45.871094 127.316406 46.53125 128.097656 47.042969 128.695312 C 46.449219 130.097656 45.925781 131.46875 45.289062 132.789062 C 45.007812 133.378906 44.503906 133.871094 43.917969 134.402344 C 44.144531 131.871094 44.5625 129.347656 45.09375 126.679688 Z M 45.09375 126.679688 "/>
<path style=" stroke:none;fill-rule:nonzero;fill:rgb(10.588235%,10.588235%,10.588235%);fill-opacity:1;" d="M 154.976562 153.167969 C 154.742188 150.265625 154.710938 147.34375 154.734375 144.242188 C 155.167969 144.421875 155.863281 144.769531 155.878906 145.144531 C 155.96875 147.558594 155.929688 149.976562 155.867188 152.394531 C 155.859375 152.652344 155.417969 152.898438 154.976562 153.167969 Z M 154.976562 153.167969 "/>
<path style=" stroke:none;fill-rule:nonzero;fill:rgb(10.588235%,10.588235%,10.588235%);fill-opacity:1;" d="M 154.976562 138.539062 C 154.742188 137.277344 154.707031 136 154.722656 134.554688 C 156.289062 135.351562 156.4375 136.859375 154.976562 138.539062 Z M 154.976562 138.539062 "/>
<path style=" stroke:none;fill-rule:nonzero;fill:rgb(93.72549%,93.72549%,93.72549%);fill-opacity:1;" d="M 155.675781 101.765625 C 156.660156 101.636719 157.847656 101.53125 159.097656 101.574219 C 158.070312 101.746094 156.976562 101.765625 155.675781 101.765625 Z M 155.675781 101.765625 "/>
<path style=" stroke:none;fill-rule:nonzero;fill:rgb(47.45098%,45.882353%,47.45098%);fill-opacity:1;" d="M 247.441406 111.730469 C 248.132812 111.851562 248.828125 112.117188 249.527344 112.386719 C 249.207031 112.722656 248.886719 113.058594 248.398438 113.414062 C 247.96875 112.917969 247.707031 112.398438 247.441406 111.730469 Z M 247.441406 111.730469 "/>
<path style=" stroke:none;fill-rule:nonzero;fill:rgb(54.901961%,53.72549%,54.901961%);fill-opacity:1;" d="M 210.195312 64.320312 C 211.398438 64.074219 212.726562 63.789062 212.175781 65.871094 C 211.414062 65.472656 210.792969 64.972656 210.195312 64.320312 Z M 210.195312 64.320312 "/>
<path style=" stroke:none;fill-rule:nonzero;fill:rgb(92.54902%,92.54902%,92.54902%);fill-opacity:1;" d="M 197.714844 101.613281 C 198.59375 101.511719 199.628906 101.484375 200.722656 101.609375 C 199.8125 101.734375 198.84375 101.707031 197.714844 101.613281 Z M 197.714844 101.613281 "/>
<path style=" stroke:none;fill-rule:nonzero;fill:rgb(49.803922%,48.627451%,49.803922%);fill-opacity:1;" d="M 88.226562 62.03125 C 88.542969 62.316406 88.734375 62.640625 88.925781 62.960938 C 88.300781 63.070312 87.671875 63.179688 86.941406 63.148438 C 87.261719 62.695312 87.683594 62.382812 88.226562 62.03125 Z M 88.226562 62.03125 "/>
<path style=" stroke:none;fill-rule:nonzero;fill:rgb(92.54902%,92.54902%,92.54902%);fill-opacity:1;" d="M 193.125 101.609375 C 193.828125 101.457031 194.671875 101.367188 195.628906 101.410156 C 194.914062 101.585938 194.089844 101.632812 193.125 101.609375 Z M 193.125 101.609375 "/>
<path style=" stroke:none;fill-rule:nonzero;fill:rgb(26.27451%,25.882353%,26.666667%);fill-opacity:1;" d="M 113.796875 263.730469 C 113.015625 264.164062 111.984375 265.074219 111.589844 263.125 C 112.289062 263.175781 112.992188 263.394531 113.796875 263.730469 Z M 113.796875 263.730469 "/>
<path style=" stroke:none;fill-rule:nonzero;fill:rgb(10.588235%,10.588235%,10.588235%);fill-opacity:1;" d="M 150.820312 82.339844 C 151.027344 82.949219 151.066406 83.582031 151.042969 84.398438 C 149.441406 84.058594 149.773438 83.253906 150.820312 82.339844 Z M 150.820312 82.339844 "/>
<path style=" stroke:none;fill-rule:nonzero;fill:rgb(26.27451%,25.882353%,26.666667%);fill-opacity:1;" d="M 112.578125 266.753906 C 113.398438 266.144531 114.289062 265.804688 114.769531 267.355469 C 114.085938 267.300781 113.382812 267.085938 112.578125 266.753906 Z M 112.578125 266.753906 "/>
<path style=" stroke:none;fill-rule:nonzero;fill:rgb(10.588235%,10.588235%,10.588235%);fill-opacity:1;" d="M 162.628906 172.414062 C 162.847656 172.480469 162.894531 172.554688 162.941406 172.875 C 162.941406 173.320312 162.945312 173.519531 162.945312 173.71875 C 162.472656 173.515625 162 173.316406 161.523438 173.113281 C 161.835938 172.882812 162.148438 172.648438 162.628906 172.414062 Z M 162.628906 172.414062 "/>
<path style=" stroke:none;fill-rule:nonzero;fill:rgb(10.588235%,10.588235%,10.588235%);fill-opacity:1;" d="M 162.59375 167.839844 C 162.789062 168.179688 162.816406 168.527344 162.800781 169.039062 C 162.34375 168.996094 161.929688 168.785156 161.511719 168.570312 C 161.820312 168.328125 162.125 168.085938 162.59375 167.839844 Z M 162.59375 167.839844 "/>
<path style=" stroke:none;fill-rule:nonzero;fill:rgb(49.803922%,48.627451%,49.803922%);fill-opacity:1;" d="M 221.921875 69.53125 C 221.632812 69.8125 221.296875 69.988281 220.960938 70.164062 C 220.929688 69.796875 220.902344 69.429688 221.023438 68.980469 C 221.410156 69.078125 221.644531 69.253906 221.921875 69.53125 Z M 221.921875 69.53125 "/>
<path style=" stroke:none;fill-rule:nonzero;fill:rgb(92.54902%,92.54902%,92.54902%);fill-opacity:1;" d="M 167.953125 101.691406 C 168.234375 101.53125 168.652344 101.421875 169.140625 101.425781 C 168.835938 101.605469 168.460938 101.675781 167.953125 101.691406 Z M 167.953125 101.691406 "/>
<path style=" stroke:none;fill-rule:nonzero;fill:rgb(26.27451%,25.882353%,26.666667%);fill-opacity:1;" d="M 125.683594 266.910156 C 125.335938 266.984375 124.882812 266.945312 124.410156 266.757812 C 124.785156 266.671875 125.183594 266.734375 125.683594 266.910156 Z M 125.683594 266.910156 "/>
<path style=" stroke:none;fill-rule:nonzero;fill:rgb(49.803922%,48.627451%,49.803922%);fill-opacity:1;" d="M 90.195312 60.648438 C 90.488281 61.007812 90.742188 61.375 90.996094 61.746094 C 90.832031 61.839844 90.667969 61.933594 90.5 62.027344 C 90.367188 61.703125 90.230469 61.378906 90.097656 60.882812 C 90.097656 60.710938 90.15625 60.65625 90.195312 60.648438 Z M 90.195312 60.648438 "/>
<path style=" stroke:none;fill-rule:nonzero;fill:rgb(68.235294%,67.843137%,68.235294%);fill-opacity:1;" d="M 250.222656 79.28125 C 250.027344 79.535156 249.796875 79.660156 249.5625 79.789062 C 249.488281 79.457031 249.410156 79.128906 249.417969 78.636719 C 249.730469 78.703125 249.957031 78.929688 250.222656 79.28125 Z M 250.222656 79.28125 "/>
<path style=" stroke:none;fill-rule:nonzero;fill:rgb(93.72549%,93.72549%,93.72549%);fill-opacity:1;" d="M 163.078125 173.695312 C 162.945312 173.519531 162.941406 173.320312 163.003906 172.984375 C 163.285156 173.046875 163.503906 173.242188 163.738281 173.558594 C 163.570312 173.675781 163.390625 173.675781 163.078125 173.695312 Z M 163.078125 173.695312 "/>
<path style=" stroke:none;fill-rule:nonzero;fill:rgb(10.588235%,10.588235%,10.588235%);fill-opacity:1;" d="M 154.917969 155.457031 C 154.726562 155.261719 154.703125 155.066406 154.726562 154.730469 C 155.078125 154.722656 155.375 154.851562 155.675781 154.984375 C 155.476562 155.140625 155.28125 155.296875 154.917969 155.457031 Z M 154.917969 155.457031 "/>
</g>
</svg>
